<ttFont>
          <CharString index="0">
            rmoveto
            -9 -460 258 -334 420 9 385 8 286 267 10 505 9 466 -257 311 -403 -3 -385 -3 -304 -260 -10 -506 rrcurveto
            674 -655 rmoveto
            -332 -2 -173 298 2 348 2 433 229 215 291 3 320 2 167 -289 -1 -350 -3 -426 -202 -230 -300 -2 rrcurveto
            return
          </CharString>
          <CharString index="1">
            rmoveto
            -365 177 -216 320 141 169 43 62 75 vhcurveto
            -32 97 rlineto
            -39 -60 -147 -37 -103 hhcurveto
            -211 -155 110 293 -10 hvcurveto
            -1 13 0 14 13 vvcurveto
            748 hlineto
            9 47 0 55 73 vvcurveto
            -7 260 -161 171 -241 -3 rrcurveto
            -328 -4 -183 -244 -343 vvcurveto
            170 100 rmoveto
            263 30 132 109 169 hhcurveto
            207 67 -163 -209 -12 hvcurveto
            return
          </CharString>
          <CharString index="2">
            rmoveto
            -37 55 177 -53 200 hhcurveto
            294 206 133 268 241 -226 115 -203 97 hvcurveto
            -216 104 -121 71 171 vvcurveto
            152 -1 167 69 162 hhcurveto
            157 95 -34 -48 74 hvcurveto
            35 133 rlineto
            36 -54 -114 46 -192 hhcurveto
            -231 -260 -96 -280 -225 200 -141 198 -90 hvcurveto
            213 -97 151 -69 -174 vvcurveto
            -168 -134 -79 -211 -144 -155 44 50 -81 vhcurveto
            return
          </CharString>
          <CharString index="3">
            rmoveto
            -43 66 150 -39 146 hhcurveto
            243 155 113 200 197 -197 90 -150 59 hvcurveto
            -148 57 -103 57 2 120 rrcurveto
            90 1 85 65 163 hhcurveto
            112 108 -32 -30 39 hvcurveto
            28 127 -40 23 -120 37 -133 -1 rlinecurve
            -214 -1 -180 -91 -4 -196 -2 -186 150 -98 175 -71 rrcurveto
            136 -55 136 -53 -120 vvcurveto
            -118 -104 -59 -146 vhcurveto
            -138 2 -147 52 -43 30 rrcurveto
            return
          </CharString>
          <CharString index="4">
            rmoveto
            64 59 51 78 65 -35 48 -72 -61 -62 -54 -74 -72 49 -42 58 hvcurveto
            return
          </CharString>
          <CharString index="5">
            rmoveto
            -106 callgsubr
            return
          </CharString>
          <CharString index="6">
            rmoveto
            88 57 215 205 68 101 -120 103 rcurveline
            -103 -142 -115 -126 -119 -130 rrcurveto
            return
          </CharString>
          <CharString index="7">
            rmoveto
            -325 179 -244 314 144 132 43 66 72 vhcurveto
            -35 96 rlineto
            -32 -49 -107 -47 -132 hhcurveto
            -194 -170 157 319 8 hvcurveto
            298 8 172 143 187 hhcurveto
            107 94 -21 -41 56 hvcurveto
            29 132 rlineto
            27 -40 -103 32 -134 hhcurveto
            -348 -191 -258 -345 1 hvcurveto
            return
          </CharString>
          <CharString index="8">
            -106 callsubr
            endchar
          </CharString>
          <CharString index="9">
            rmoveto
            -461 270 -309 418 216 96 50 30 92 vhcurveto
            -2 144 rlineto
            -35 -54 -151 -55 -190 hhcurveto
            -334 -193 277 371 406 221 228 316 229 89 -55 -15 46 hvcurveto
            24 150 rlineto
            14 -62 -104 44 -231 hhcurveto
            -381 -315 -280 -504 hvcurveto
            return
          </CharString>
          <CharString index="10">
            -102 callsubr
            endchar
          </CharString>
          <CharString index="11">
            105 591 -105 callgsubr
            return
          </CharString>
          <CharString index="12">
            rmoveto
            248 223 244 -223 110 47 -280 296 rlineto
            -149 hlineto
            return
          </CharString>
          <CharString index="13">
            rmoveto
            212 137 152 173 -12 hvcurveto
            -114 hlineto
            -47 -1 -32 -146 -190 hhcurveto
            -194 -25 143 50 -2 hvcurveto
            -117 hlineto
            -173 -12 126 -152 224 hhcurveto
            return
          </CharString>
          <CharString index="14">
            877 -168 -837 vlineto
            -437 -146 -131 -241 -257 -153 125 442 vhcurveto
            return
          </CharString>
          <CharString index="15">
            rmoveto
            211 140 181 178 -13 hvcurveto
            -114 hlineto
            -49 -31 -180 -192 -196 -24 177 52 -1 vhcurveto
            -118 hlineto
            -178 -12 129 -181 221 hhcurveto
            endchar
          </CharString>
          <CharString index="16">
            rmoveto
            53 -89 174 25 214 129 44 243 rlinecurve
            24 133 -5 162 177 vvcurveto
            985 -172 -968 vlineto
            -210 2 -194 -36 -119 vhcurveto
            -44 -149 -130 -91 -124 -34 rrcurveto
            return
          </CharString>
          <CharString index="17">
            32 147 30 -147 237 -837 rlineto
            154 hlineto
            355 1158 rlineto
            -163 hlineto
            -221 -788 -43 -179 -42 184 -223 783 rlineto
            -165 hlineto
            -221 -783 -40 -180 -43 180 -229 783 rlineto
            -167 hlineto
            return
          </CharString>
          <CharString index="18">
            169 663 hlineto
            132 -2 98 0 79 3 170 -42 107 -342 87 -178 28 -58 10 -23 16 -21 rrcurveto
            192 hlineto
            -18 28 -19 35 -21 39 -99 179 -109 319 -149 90 rrcurveto
            186 53 123 143 230 vvcurveto
            309 -213 111 -309 -131 -134 -12 -1 -95 vhcurveto
            return
          </CharString>
          <CharString index="19">
            -105 callsubr
            endchar
          </CharString>
          <CharString index="20">
            -48 -64 -134 -59 -116 hhcurveto
            -177 -57 57 285 hvcurveto
            676 -166 vlineto
            return
          </CharString>
          <CharString index="21">
            1487 -16 126 -110 133 -112 -21 1387 135 -109 123 -78 64 0 56 callsubr
            201 1114 -30 callsubr
            hintmask 0010100110000000
            0 callgsubr
            -14 callsubr
            hintmask 1000100110000000
            -95 callgsubr
            hintmask 1000001110000000
            -54 callsubr
            hintmask 1000100110000000
            -90 callgsubr
            hintmask 1000001110000000
            -32 callsubr
            -30 callsubr
            1210 -62 -43 callsubr
            hintmask 0101000001000000
            19 callgsubr
            hintmask 0100010001000000
            -43 callgsubr
            return
          </CharString>
          <CharString index="22">
            rmoveto
            148 hlineto
            329 1096 37 182 37 -182 325 -1096 rlineto
            166 hlineto
            392 1538 rlineto
            -171 hlineto
            -236 -1007 -64 -331 -85 332 -301 1006 rlineto
            -125 hlineto
            -298 -1006 -74 -335 -69 335 -249 1006 rlineto
            -174 hlineto
            return
          </CharString>
          <CharString index="23">
            rmoveto
            85 68 -117 133 -119 134 -101 131 rlinecurve
            -120 -103 80 -115 197 -185 95 -63 rlinecurve
            endchar
          </CharString>
          <CharString index="24">
            111 769 -107 callsubr
            return
          </CharString>
          <CharString index="25">
            rmoveto
            -428 -1 172 -232 402 hhcurveto
            374 186 222 439 hvcurveto
            return
          </CharString>
          <CharString index="26">
            1589 -101 callgsubr
            return
          </CharString>
          <CharString index="27">
            rmoveto
            71 71 -45 36 -262 234 -40 45 rlinecurve
            -111 -102 94 -99 182 -129 111 -56 rlinecurve
            return
          </CharString>
          <CharString index="28">
            rmoveto
            -289 40 -198 294 133 160 59 74 106 vhcurveto
            return
          </CharString>
          <CharString index="29">
            178 -16 126 -89 -21 737 114 562 123 -14 -20 hstemhm
            62 747 -603 169 833 176 hintmask 00100100
            62 737 rmoveto
            747 114 -747 hlineto
            hintmask 00000000
            144 -851 rmoveto
            -14 callsubr
            hintmask 01010011
            -95 callgsubr
            hintmask 10010011
            -54 callsubr
            hintmask 10001011
            -90 callgsubr
            hintmask 10010011
            -32 callsubr
            endchar
          </CharString>
          <CharString index="30">
            rmoveto
            63 78 56 156 176 vvcurveto
            103 -18 97 -42 38 vhcurveto
            -133 -41 -10 -37 rlineto
            29 -36 24 -94 -78 vvcurveto
            -183 -39 -67 -21 -63 vhcurveto
            7 -23 rlineto
            endchar
          </CharString>
          <CharString index="31">
            -61 vlineto
            -61 31 -7 53 vhcurveto
            64 1152 -167 -911 hlineto
            return
          </CharString>
          <CharString index="32">
            -8 15 82 -5 36 hhcurveto
            227 112 158 372 hvcurveto
            1116 -166 return
          </CharString>
          <CharString index="33">
            -74 2 51 -50 58 hhcurveto
            66 59 59 82 -3 hvcurveto
            68 -1 -38 56 -72 hhcurveto
            -64 -59 -62 -79 1 hvcurveto
            return
          </CharString>
          <CharString index="34">
            107 117 80 96 43 hvcurveto
            -67 56 rlineto
            -45 -38 -67 -60 -81 -121 -15 150 -166 hhcurveto
            return
          </CharString>
          <CharString index="35">
            -77 -517 115 402 132 248 112 511 134 -95 114 return
          </CharString>
          <CharString index="36">
            -248 -202 -244 202 -97 -46 rlineto
            return
          </CharString>
          <CharString index="37">
            58 -16 131 -128 134 -113 -21 1153 -20 hstemhm
            216 166 551 6 callgsubr
            hintmask 10011100
            348 113 rmoveto
            -102 64 102 -27 117 hhcurveto
            162 111 102 52 51 hvcurveto
            hintmask 00111100
            -110 -4 43 -41 69 hhcurveto
            91 83 71 29 17 hvcurveto
            hintmask 01011100
            -24 76 rlineto
            -35 -41 -33 -7 -16 hhcurveto
            -27 -14 19 88 hvcurveto
            912 -166 -905 vlineto
            hintmask 10011100
            -38 -48 -124 -82 -116 hhcurveto
            -173 1 -90 83 185 vvcurveto
            756 -166 -1511 156 vlineto
            endchar
          </CharString>
          <CharString index="38">
            21 -56 callgsubr
            return
          </CharString>
          <CharString index="39">
            272 hmoveto
            -106 callgsubr
            return
          </CharString>
          <CharString index="40">
            rmoveto
            hintmask 0001010100000000
            -47 callsubr
            hintmask 0001100100000000
            -72 callgsubr
            hintmask 0001010100000000
            -22 callsubr
          </CharString>
          <CharString index="41">
            hmoveto
            531 114 hlineto
            -167 109 -205 281 359 vvcurveto
            384 259 174 272 249 266 -157 -401 -365 -176 -275 -181 -109 vhcurveto
            1 -114 rlineto
            561 118 -385 hlineto
            195 146 155 285 320 vvcurveto
            437 -296 239 -389 -348 -351 -216 -460 -2 vhcurveto
            -2 -320 185 -295 180 -136 rrcurveto
            -352 hlineto
            endchar
          </CharString>
          <CharString index="42">
            193 hmoveto
            167 878 hlineto
            90 74 143 60 102 4 rrcurveto
            187 9 37 -101 -227 vvcurveto
            -697 167 708 vlineto
            72 -4 62 -9 52 vhcurveto
            85 60 129 61 108 2 rrcurveto
            200 6 31 -116 -212 vvcurveto
            -695 166 703 vlineto
            339 -93 118 -241 -3 vhcurveto
            -162 -2 -166 -85 -86 -66 -48 116 -90 39 -144 -2 -158 -3 -177 -94 -84 -67 rrcurveto
            return
          </CharString>
          <CharString index="43">
            145 hlineto
            658 1530 rlineto
            -145 hlineto
            -794 -844 rmoveto
            196 5 179 141 259 vvcurveto
            224 -105 183 -241 -6 vhcurveto
            -196 -6 -179 -142 -261 vvcurveto
            -215 128 -186 218 4 vhcurveto
            10 112 rmoveto
            -130 -1 -77 129 163 vvcurveto
            179 88 110 129 2 vhcurveto
            135 2 71 -122 -174 vvcurveto
            -181 -88 -105 -128 -2 vhcurveto
            return
          </CharString>
          <CharString index="44">
            rrcurveto
            -118 -6 -57 -47 -80 hhcurveto
            -37 -36 7 11 -17 hvcurveto
            -33 callsubr
            return
          </CharString>
          <CharString index="45">
            -156 -16 125 466 107 348 127 return
          </CharString>
          <CharString index="46">
            9 -39 -43 5 -46 hhcurveto
            -292 -224 -201 -364 -5 hvcurveto
            -3 -245 80 -223 198 -93 rrcurveto
            46 136 rmoveto
            -105 84 -47 161 1 178 1 285 130 164 217 -3 32 -1 31 -4 27 -9 rrcurveto
            -198 -904 rmoveto
            288 858 rlineto
            103 -81 48 -154 -179 vvcurveto
            -1 -285 -126 -176 -218 3 rrcurveto
            -34 -32 5 9 -28 hvcurveto
            return
          </CharString>
          <CharString index="47">
            271 -16 130 1295 129 return
          </CharString>
          <CharString index="48">
            rmoveto
            85 68 94 101 82 114 -130 68 rcurveline
            -26 -42 -164 -216 -36 -40 rrcurveto
            563 -53 rmoveto
            88 67 101 105 72 102 -124 68 rcurveline
            -23 -35 -173 -214 -37 -40 rrcurveto
            endchar
          </CharString>
          <CharString index="49">
            102 533 rmoveto
            -386 217 -163 233 186 107 87 55 57 vhcurveto
            return
          </CharString>
          <CharString index="50">
            rmoveto
            543 124 -543 hlineto
            return
          </CharString>
          <CharString index="51">
            697 -346 rmoveto
            -215 128 -186 218 5 vhcurveto
            195 5 179 140 260 vvcurveto
            223 -104 184 -241 -7 vhcurveto
            -196 -6 -179 -142 -261 vvcurveto
            149 6 rmoveto
            180 87 110 130 2 vhcurveto
            135 2 70 -123 -173 vvcurveto
            -181 -87 -106 -129 -1 vhcurveto
            -129 -1 -77 128 163 vvcurveto
            endchar
          </CharString>
          <CharString index="52">
            540 -283 156 283 193 hlineto
            -1 116 rlineto
            -192 298 hlineto
            -149 -16 -6 -280 rlineto
            -2 -397 vlineto
            56 100 384 629 -99 59 rlineto
            -52 hlineto
            return
          </CharString>
          <CharString index="53">
            -1 -13 -95 0 -12 hhcurveto
            169 -1394 rmoveto
            return
          </CharString>
          <CharString index="54">
            -244 -56 -104 -134 -39 -56 10 9 -21 vhcurveto
            return
          </CharString>
          <CharString index="55">
            612 vlineto
            11 62 111 5 91 hhcurveto
            260 116 -86 -217 hvcurveto
            -1 -222 -141 -107 -214 -2 rrcurveto
            return
          </CharString>
          <CharString index="56">
            hstemhm
            121 163 -142 166 -114 153 return
          </CharString>
          <CharString index="57">
            79 -48 callgsubr
            return
          </CharString>
          <CharString index="58">
            -101 callsubr
            endchar
          </CharString>
          <CharString index="59">
            hstemhm
            -25 callsubr
            return
          </CharString>
          <CharString index="60">
            44 38 67 60 86 123 7 -149 176 hhcurveto
            return
          </CharString>
          <CharString index="61">
            -194 -507 139 -104 -21 514 -21 1140 -20 return
          </CharString>
          <CharString index="62">
            169 488 hlineto
            229 265 116 -179 196 -279 103 -182 rlinecurve
            35 -62 11 -26 16 -25 rrcurveto
            196 hlineto
            -67 111 -120 210 -279 396 -101 159 rlinecurve
            541 646 rlineto
            -201 hlineto
            -675 -821 rlineto
            821 -169 vlineto
            endchar
          </CharString>
          <CharString index="63">
            774 126 hlineto
            -545 -4 271 158 205 203 2 232 rlinecurve
            155 1 -109 148 -250 hhcurveto
            -189 -152 -101 -95 -62 hvcurveto
            70 -84 rlineto
            106 83 104 53 118 hhcurveto
            140 83 -70 -139 -238 -353 -255 -224 -109 hvcurveto
            return
          </CharString>
          <CharString index="64">
            rmoveto
            36 -66 rlineto
            1036 133 -849 hlineto
            86 106 rlineto
            return
          </CharString>
          <CharString index="65">
            145 60 71 96 116 vvcurveto
            132 -115 112 -237 -7 vhcurveto
            -79 -3 -150 -38 -81 -67 48 -92 rcurveline
            67 49 98 36 81 4 143 9 70 -74 2 -78 3 -91 -59 -69 -105 -42 -45 -18 -69 -23 -53 -11 29 -98 rcurveline
            119 33 rlineto
            return
          </CharString>
          <CharString index="66">
            -277 -298 rlineto
            endchar
          </CharString>
          <CharString index="67">
            276 0 133 -112 -21 hstemhm
            55 1466 hintmask 00000000
            hintmask 01100000
            55 21 rmoveto
            hintmask 10100000
            13 -21 rlineto
            1438 hlineto
            15 25 -749 1483 rlineto
            -29 hlineto
            -472 -1375 rmoveto
            493 1086 530 -1086 rlineto
            endchar
          </CharString>
          <CharString index="68">
            -78 -16 119 932 121 return
          </CharString>
          <CharString index="69">
            1690 -7 callgsubr
            hintmask 00100010
            -33 callgsubr
            hintmask 00010010
            16 callgsubr
            hintmask 00010100
            -25 callgsubr
            hintmask 00100100
            -34 callsubr
            hintmask 00010100
            16 callsubr
            return
          </CharString>
          <CharString index="70">
            -91 callgsubr
            endchar
          </CharString>
          <CharString index="71">
            1 839 rlineto
            -169 hlineto
            return
          </CharString>
          <CharString index="72">
            -80 callsubr
            endchar
          </CharString>
          <CharString index="73">
            65 -33 44 -71 -62 -59 -50 -74 vhcurveto
            return
          </CharString>
          <CharString index="74">
            -32 callgsubr
            116 103 63 169 10 hvcurveto
            return
          </CharString>
          <CharString index="75">
            -88 -1 -125 8 -77 11 rrcurveto
            return
          </CharString>
          <CharString index="76">
            -71 callgsubr
            hintmask 00101000
            -71 callsubr
            endchar
          </CharString>
          <CharString index="77">
            hintmask 0000000000000000
            return
          </CharString>
          <CharString index="78">
            144 -49 -120 38 -167 hhcurveto
            -183 -202 -88 -26 -41 hvcurveto
            42 -112 rlineto
            43 65 163 56 115 hhcurveto
            152 100 -27 -202 hvcurveto
            -119 vlineto
            -131 -179 -15 -52 -133 hvcurveto
            return
          </CharString>
          <CharString index="79">
            -49 -70 -68 44 -38 return
          </CharString>
          <CharString index="80">
            161 108 99 93 39 hvcurveto
            -79 76 rlineto
            -66 -47 -71 -59 -102 -153 -40 172 -194 hhcurveto
            return
          </CharString>
          <CharString index="81">
            111 rmoveto
            58 -21 48 -104 -82 vvcurveto
            -156 -75 -118 -68 -39 vhcurveto
            1 -21 56 -69 rlineto
            127 56 117 172 226 vvcurveto
            108 -40 139 -119 56 vhcurveto
            -105 -99 rlineto
            return
          </CharString>
          <CharString index="82">
            206 169 return
          </CharString>
          <CharString index="83">
            21 -21 1014 126 return
          </CharString>
          <CharString index="84">
            189 hlineto
            199 417 rlineto
            506 -417 945 133 -776 586 526 131 -526 541 702 131 -1034 hlineto
            -283 -978 rmoveto
            return
          </CharString>
          <CharString index="85">
            -119 -99 -91 -85 -41 hvcurveto
            endchar
          </CharString>
          <CharString index="86">
            -718 vmoveto
            589 vlineto
            6 51 202 -2 76 hhcurveto
            229 -4 137 -84 -202 vvcurveto
            -240 -148 -83 -261 -93 -109 4 16 -84 vhcurveto
            endchar
          </CharString>
          <CharString index="87">
            hmoveto
            -11 callsubr
            return
          </CharString>
          <CharString index="88">
            134 6 callsubr
            return
          </CharString>
          <CharString index="89">
            106 -947 rlineto
            171 hlineto
            -196 1522 rlineto
            -228 hlineto
            -318 -989 -73 -286 -75 286 -337 989 rlineto
            -240 hlineto
            endchar
          </CharString>
          <CharString index="90">
            150 hlineto
            541 1530 rlineto
            -152 hlineto
            endchar
          </CharString>
          <CharString index="91">
            -14 callgsubr
            515 -38 callgsubr
            return
          </CharString>
          <CharString index="92">
            -147 -16 135 1286 133 return
          </CharString>
          <CharString index="93">
            8 83 -1 -1 20 hvcurveto
            return
          </CharString>
          <CharString index="94">
            -28 callsubr
            56 hvcurveto
            return
          </CharString>
          <CharString index="95">
            98 52 66 118 44 vhcurveto
            38 89 148 15 116 hhcurveto
            -10 vlineto
            -109 14 -95 29 -79 vhcurveto
            -76 -51 -141 -97 -149 hhcurveto
            return
          </CharString>
          <CharString index="96">
            167 1664 -167 hlineto
            return
          </CharString>
          <CharString index="97">
            167 hintmask 00000000
            return
          </CharString>
          <CharString index="98">
            27 -16 134 1282 138 return
          </CharString>
          <CharString index="99">
            -539 -21 581 -21 return
          </CharString>
          <CharString index="100">
            734 vlineto
            71 10 92 4 78 2 rrcurveto
            273 6 135 -110 -266 vvcurveto
            -290 -181 -99 -231 -3 vhcurveto
            return
          </CharString>
          <CharString index="101">
            8 0 133 1254 135 -64 64 return
          </CharString>
          <CharString index="102">
            hstemhm
            171 168 return
          </CharString>
          <CharString index="103">
            -21 418 127 return
          </CharString>
          <CharString index="104">
            hintmask 11000100
            10 callsubr
            return
          </CharString>
          <CharString index="105">
            40 callsubr
            710 792 -710 169 1522 -169 -682 -792 682 -169 hlineto
            return
          </CharString>
          <CharString index="106">
            -26 -38 -108 -31 -68 hhcurveto
            return
          </CharString>
          <CharString index="107">
            626 rmoveto
            -21 67 88 -17 74 hhcurveto
            307 144 153 192 114 -80 137 -207 6 hvcurveto
            return
          </CharString>
          <CharString index="108">
            555 vlineto
            8 55 122 4 55 hhcurveto
            217 149 -69 -191 -183 -94 -116 -157 -12 hvcurveto
            return
          </CharString>
          <CharString index="109">
            rmoveto
            65 46 65 61 102 156 34 -173 194 hhcurveto
            return
          </CharString>
          <CharString index="110">
            -11 -89 -1 0 hvcurveto
            169 -739 rmoveto
            return
          </CharString>
          <CharString index="111">
            127 22 126 -100 -20 hstemhm
            return
          </CharString>
          <CharString index="112">
            -58 -28 callsubr
            return
          </CharString>
          <CharString index="113">
            hstemhm
            24 callsubr
            return
          </CharString>
          <CharString index="114">
            49 705 135 hstem
            247 856 vstem
            247 705 rmoveto
            856 135 -856 hlineto
            endchar
          </CharString>
          <CharString index="115">
            153 -2 92 -81 -2 -117 rrcurveto
            -124 -82 -98 -222 -2 vhcurveto
            -91 -1 -58 12 -76 23 rrcurveto
            return
          </CharString>
          <CharString index="116">
            134 hhcurveto
            82 96 21 41 53 hvcurveto
            92 vlineto
            -52 -26 -57 -14 -50 -1 rrcurveto
            -83 -65 26 93 -1 hvcurveto
            return
          </CharString>
          <CharString index="117">
            -65 callgsubr
            hintmask 00000000
            return
          </CharString>
          <CharString index="118">
            -21 22 -21 hstemhm
            return
          </CharString>
          <CharString index="119">
            193 167 return
          </CharString>
          <CharString index="120">
            -133 -132 -14 -113 hhcurveto
            -82 return
          </CharString>
          <CharString index="121">
            -16 131 -106 -21 1046 122 return
          </CharString>
          <CharString index="122">
            hstemhm
            12 callsubr
            return
          </CharString>
          <CharString index="123">
            -70 47 -38 57 vhcurveto
            return
          </CharString>
          <CharString index="124">
            hstemhm
            13 callgsubr
            return
          </CharString>
          <CharString index="125">
            rmoveto
            124 hlineto
            157 600 rlineto
            -175 hlineto
            return
          </CharString>
          <CharString index="126">
            225 254 226 return
          </CharString>
          <CharString index="127">
            1010 -16 131 -115 122 -113 -21 1024 128 -106 122 -90 74 return
          </CharString>
          <CharString index="128">
            -10 152 rlineto
            -142 hlineto
            endchar
          </CharString>
          <CharString index="129">
            rmoveto
            915 128 -915 hlineto
            -686 vmoveto
            915 127 -915 hlineto
            endchar
          </CharString>
          <CharString index="130">
            1743 -57 callsubr
            return
          </CharString>
          <CharString index="131">
            272 167 return
          </CharString>
          <CharString index="132">
            339 -962 rlineto
            93 hlineto
            323 962 124 450 44 -450 rlineto
            return
          </CharString>
          <CharString index="133">
            525 -16 125 444 112 -90 107 348 127 -120 119 return
          </CharString>
          <CharString index="134">
            -60 -63 -75 2 hvcurveto
            -661 hmoveto
            -71 2 50 -51 58 hhcurveto
            66 59 60 79 return
          </CharString>
          <CharString index="135">
            39 callgsubr
            -58 -14 return
          </CharString>
          <CharString index="136">
            49 -14 124 -89 -21 723 121 571 120 -12 -20 return
          </CharString>
          <CharString index="137">
            -157 -116 -121 -78 -34 hvcurveto
            return
          </CharString>
          <CharString index="138">
            -52 -69 callsubr
            return
          </CharString>
          <CharString index="139">
            21 41 54 hvcurveto
            92 vlineto
            -53 return
          </CharString>
          <CharString index="140">
            118 444 114 return
          </CharString>
          <CharString index="141">
            -21 17 callsubr
            return
          </CharString>
          <CharString index="142">
            -54 -485 -21 490 122 919 131 -16 -20 return
          </CharString>
          <CharString index="143">
            141 54 rmoveto
            -39 49 -25 37 65 65 39 39 34 vhcurveto
            return
          </CharString>
          <CharString index="144">
            -94 -57 -115 -114 2 -128 rrcurveto
            -136 1 return
          </CharString>
          <CharString index="145">
            hstemhm
            102 171 619 167 return
          </CharString>
          <CharString index="146">
            -447 -363 1962 hstem
            return
          </CharString>
          <CharString index="147">
            0 callgsubr
            169 return
          </CharString>
          <CharString index="148">
            -460 -191 108 1710 110 hstem
            return
          </CharString>
          <CharString index="149">
            -216 21 -21 699 131 561 131 return
          </CharString>
          <CharString index="150">
            -315 -195 113 1711 112 hstem
            return
          </CharString>
          <CharString index="151">
            -21 1391 131 return
          </CharString>
          <CharString index="152">
            -21 -5 callsubr
            return
          </CharString>
          <CharString index="153">
            134 896 126 return
          </CharString>
          <CharString index="154">
            -744 1699 -21 hstem
            50 457 vstem
            return
          </CharString>
          <CharString index="155">
            -19 callsubr
            634 167 return
          </CharString>
          <CharString index="156">
            -21 663 114 634 125 -13 -20 return
          </CharString>
          <CharString index="157">
            414 866 rlineto
            32 -866 hlineto
            endchar
          </CharString>
          <CharString index="158">
            -13 21 52 callsubr
            return
          </CharString>
          <CharString index="159">
            -21 1018 139 return
          </CharString>
          <CharString index="160">
            hstemhm
            39 1557 return
          </CharString>
          <CharString index="161">
            -20 269 242 return
          </CharString>
          <CharString index="162">
            92 vlineto
            -53 -26 -57 -14 -51 -1 rrcurveto
            -84 return
          </CharString>
          <CharString index="163">
            44 callgsubr
            833 176 return
          </CharString>
          <CharString index="164">
            205 156 return
          </CharString>
          <CharString index="165">
            -512 113 return
          </CharString>
        <CharString name=".notdef">
          571 0 219 hstem
          228 1416 vstem
          228 hmoveto
          1416 1416 -1416 hlineto
          230 -1053 rmoveto
          358 342 -359 363 123 125 357 -368 352 366 128 -124 -363 -358 363 -368 -122 -122 -362 368 -347 -368 rlineto
          endchar
        </CharString>
        <CharString name="A">
          -44 callgsubr
          hstem
          25 callgsubr
          vstem
          -102 callgsubr
          endchar
        </CharString>
        <CharString name="AE">
          29 callgsubr
          -112 112 hstemhm
          839 169 hintmask 00000000
          hintmask 11110100
          -55 hmoveto
          -23 callsubr
          hintmask 11101100
          50 callsubr
        </CharString>
        <CharString name="AEacute">
          29 callgsubr
          159 -21 hstemhm
          839 169 -109 458 hintmask 00001010
          971 -81 callsubr
          hintmask 00000000
          -954 -1660 rmoveto
          -23 callsubr
          hintmask 11110100
          50 callsubr
        </CharString>
        <CharString name="Aacute">
          -44 callgsubr
          163 -21 41 callgsubr
          -782 458 hintmask 11101000
          -102 callgsubr
          hintmask 00010100
          -336 1044 -101 callgsubr
          endchar
        </CharString>
        <CharString name="Abreve">
          -44 callgsubr
          124 132 41 callgsubr
          -1001 677 hintmask 11101000
          -102 callgsubr
          hintmask 00010100
          -288 1097 -26 callgsubr
        </CharString>
        <CharString name="Acircumflex">
          -44 callgsubr
          142 -21 68 -21 41 callgsubr
          -1015 706 hintmask 11100100
          -102 callgsubr
          hintmask 00000000
          -537 1094 -95 callsubr
          hintmask 00011010
          -41 callsubr
        </CharString>
        <CharString name="Adieresis">
          -44 callgsubr
          172 5 callgsubr
          33 1328 -1015 19 callsubr
          hintmask 11100100
          -102 callgsubr
          hintmask 00000000
          -57 1145 -7 callgsubr
          hintmask 00001001
          -33 callgsubr
          hintmask 00010001
          16 callgsubr
          hintmask 00001001
          -25 callgsubr
          hintmask 00001010
          -34 callsubr
          hintmask 00010010
          16 callsubr
          endchar
        </CharString>
        <CharString name="Agrave">
          -44 callgsubr
          163 -21 41 callgsubr
          -1001 458 hintmask 11101000
          -102 callgsubr
          hintmask 00010100
          -240 1044 -35 callsubr
        </CharString>
        <CharString name="Amacron">
          -44 callgsubr
          225 124 41 callgsubr
          -932 543 hintmask 11101000
          -102 callgsubr
          hintmask 00010100
          -558 1198 -57 callsubr
          endchar
        </CharString>
        <CharString name="Aogonek">
          92 58 callsubr
          420 -31 callgsubr
          hstem
          902 164 vstem
          33 hmoveto
          180 hlineto
          153 418 rlineto
          665 hlineto
          147 -418 rlineto
          12 hlineto
          -119 -59 -171 -113 2 -140 rrcurveto
          -136 1 107 -64 133 hhcurveto
          84 96 21 41 54 hvcurveto
          55 callsubr
          -64 26 93 -2 hvcurveto
          -1 117 157 108 102 55 rrcurveto
          37 hlineto
          -574 1538 rlineto
          -166 hlineto
          -209 -993 rmoveto
          255 694 38 121 38 -120 244 -695 rlineto
          endchar
        </CharString>
        <CharString name="Aring">
          92 21 -4 callsubr
          914 97 -18 -20 359 95 41 callgsubr
          -973 20 callgsubr
          hintmask 11010100
          -102 callgsubr
          hintmask 00101011
          -293 914 -75 callgsubr
        </CharString>
        <CharString name="Atilde">
          -44 callgsubr
          149 127 27 123 41 callgsubr
          -1073 822 hintmask 11100100
          -102 callgsubr
          hintmask 00000000
          -633 1168 rmoveto
          hintmask 00010010
          -47 callgsubr
          hintmask 00011010
          -73 callsubr
          hintmask 00010010
          -10 callgsubr
          endchar
        </CharString>
        <CharString name="B">
          29 callsubr
          hstemhm
          206 168 598 164 -67 172 hintmask 00000000
          hintmask 01110101
          0 callgsubr
          89 hlineto
          hintmask 10110101
          1 callgsubr
          hintmask 10110110
          7 callgsubr
          hintmask 10101101
          -92 1 rlineto
          168 -675 rmoveto
          hintmask 10110110
          1 callsubr
          hintmask 10101101
          -75 -207 -5 9 -65 hvcurveto
          hintmask 10110101
          -21 callsubr
        </CharString>
        <CharString name="C">
          -9 callsubr
          hstem
          107 168 vstem
          107 754 -98 callsubr
          endchar
        </CharString>
        <CharString name="CR">
          55 callgsubr
        </CharString>
        <CharString name="Cacute">
          -9 callsubr
          143 -21 hstemhm
          107 168 408 458 hintmask 11010000
          107 754 -98 callsubr
          hintmask 00101000
          648 835 -101 callgsubr
          endchar
        </CharString>
        <CharString name="Ccaron">
          -9 callsubr
          150 -21 hstemhm
          107 168 186 681 hintmask 11010000
          107 754 -98 callsubr
          hintmask 00000000
          622 913 -31 callsubr
        </CharString>
        <CharString name="Ccedilla">
          27 -464 119 331 132 1282 138 hstem
          107 168 480 124 vstem
          522 9 callgsubr
          75 -24 53 179 7 87 43 84 28 -2 144 rcurveline
          -35 -54 -151 -55 -190 hhcurveto
          -334 -193 277 371 406 221 228 316 229 89 -55 -15 46 hvcurveto
          24 150 rlineto
          14 -62 -104 44 -231 hhcurveto
          -381 -315 -280 -504 -442 248 -302 388 -24 hvcurveto
          12 -38 6 -51 -6 -77 rrcurveto
          -118 -6 -57 -47 -80 hhcurveto
          -37 -36 7 11 -17 hvcurveto
          endchar
        </CharString>
        <CharString name="Ccircumflex">
          -9 callsubr
          122 12 callgsubr
          107 168 175 706 hintmask 11001000
          107 754 -98 callsubr
          hintmask 00000000
          447 885 -95 callsubr
          hintmask 00110100
          -41 callsubr
        </CharString>
        <CharString name="Cdotaccent">
          -9 callsubr
          174 -21 hstemhm
          107 168 414 227 hintmask 00101000
          795 1691 -91 callgsubr
          hintmask 11010000
          -688 -937 -98 callsubr
          endchar
        </CharString>
        <CharString name="D">
          3 callgsubr
          hstemhm
          206 169 833 176 hintmask 00000000
          hintmask 01101100
          0 callgsubr
          -14 callsubr
          hintmask 10101100
          -95 callgsubr
          hintmask 10011100
          -54 callsubr
          hintmask 10101100
          -90 callgsubr
          hintmask 10011100
          -32 callsubr
          endchar
        </CharString>
        <CharString name="Dcaron">
          3 callgsubr
          165 113 -92 -21 -48 callsubr
          -2 681 154 176 -30 callsubr
          hintmask 0000010100000000
          641 1667 -71 callgsubr
          hintmask 0000100100000000
          -71 callsubr
          -30 callsubr
          -167 -1936 rmoveto
          -14 callsubr
          hintmask 0110001010000000
          -95 callgsubr
          hintmask 1010001010000000
          -54 callsubr
          hintmask 1001001010000000
          -90 callgsubr
          hintmask 1010001010000000
          -32 callsubr
          endchar
        </CharString>
        <CharString name="Dcroat">
          -78 callsubr
        </CharString>
        <CharString name="Delta">
          -40 callsubr
        </CharString>
        <CharString name="E">
          -53 callgsubr
          hstem
          -25 callsubr
          vstem
          0 callgsubr
          -79 callgsubr
        </CharString>
        <CharString name="Eacute">
          -53 callgsubr
          159 -21 -48 callsubr
          178 458 hintmask 00010100
          625 -81 callsubr
          hintmask 11101000
          -347 -1660 rmoveto
          -79 callgsubr
        </CharString>
        <CharString name="Ebreve">
          -53 callgsubr
          120 132 -48 callsubr
          -41 677 hintmask 00010100
          673 1642 -94 callsubr
          hintmask 11101000
          -467 -1642 rmoveto
          -79 callgsubr
        </CharString>
        <CharString name="Ecaron">
          -53 callgsubr
          51 callgsubr
          206 169 -43 681 hintmask 00000000
          hintmask 00001010
          600 1667 -71 callgsubr
          hintmask 00010010
          -71 callsubr
          hintmask 11100100
          -126 -1936 rmoveto
          -79 callgsubr
        </CharString>
        <CharString name="Ecircumflex">
          -53 callgsubr
          138 -21 68 -21 -48 callsubr
          -54 706 hintmask 11100100
          0 callgsubr
          -77 callgsubr
          hintmask 00000000
          219 117 -95 callsubr
          hintmask 00011010
          -41 callsubr
        </CharString>
        <CharString name="Edieresis">
          -53 callgsubr
          168 5 callgsubr
          206 169 -54 19 callsubr
          hintmask 00000000
          hintmask 00001001
          905 1690 -7 callgsubr
          hintmask 00010001
          -33 callgsubr
          hintmask 00001001
          16 callgsubr
          hintmask 00001010
          -25 callgsubr
          hintmask 00010010
          -34 callsubr
          hintmask 00001010
          16 callsubr
          hintmask 11100100
          -219 -1690 rmoveto
          -79 callgsubr
        </CharString>
        <CharString name="Edotaccent">
          -53 callgsubr
          190 -21 -48 callsubr
          185 227 hintmask 00010100
          666 1691 -91 callgsubr
          hintmask 11101000
          -460 -1691 rmoveto
          -79 callgsubr
        </CharString>
        <CharString name="Egrave">
          -53 callgsubr
          159 -21 -48 callsubr
          -40 458 hintmask 00010100
          722 1589 -80 callsubr
          hintmask 11101000
          -516 -1589 rmoveto
          -79 callgsubr
        </CharString>
        <CharString name="Emacron">
          -53 callgsubr
          221 124 -48 callsubr
          28 543 hintmask 00010100
          403 23 callsubr
          hintmask 11101000
          -197 -1867 rmoveto
          -79 callgsubr
        </CharString>
        <CharString name="Eng">
          279 52 callgsubr
          205 165 832 166 vstem
          0 callgsubr
          165 972 hlineto
          -9 314 144 -246 683 -1005 -3 -134 -209 -167 -199 -57 rlinecurve
          44 -80 186 29 244 137 69 229 rlinecurve
          42 122 5 139 152 vvcurveto
          1117 -166 -999 vlineto
          14 -304 -133 236 -720 1067 rlineto
          -158 hlineto
          endchar
        </CharString>
        <CharString name="Eogonek">
          -98 58 callsubr
          399 133 588 131 539 131 hstem
          -25 callsubr
          252 164 vstem
          0 callgsubr
          717 hlineto
          -140 -57 -158 -123 2 -139 rrcurveto
          -136 1 106 -57 9 callsubr
          -2 117 160 107 109 56 rrcurveto
          79 -78 callgsubr
          endchar
        </CharString>
        <CharString name="Eth">
          -78 callsubr
        </CharString>
        <CharString name="Euro">
          221 -28 123 432 110 262 109 403 127 hstem
          311 182 vstem
          119 527 rmoveto
          206 hlineto
          -336 53 199 -219 342 hhcurveto
          289 75 75 14 88 hvcurveto
          -46 126 rlineto
          -42 -75 -132 -50 -178 hhcurveto
          -264 -124 173 259 -42 hvcurveto
          562 110 -574 hlineto
          -3 42 -2 43 45 vvcurveto
          46 2 44 5 42 vhcurveto
          605 109 -587 hlineto
          274 64 178 129 209 hhcurveto
          165 -1 89 -27 78 -42 41 134 rcurveline
          -82 21 -84 48 -203 -6 -322 -9 -227 -192 -81 -329 rrcurveto
          -193 -109 173 hlineto
          -8 -57 -4 -59 -63 vvcurveto
          -28 1 -28 1 -27 vhcurveto
          -194 hlineto
          endchar
        </CharString>
        <CharString name="F">
          42 callsubr
          hstem
          -25 callsubr
          vstem
          206 hmoveto
          21 callgsubr
        </CharString>
        <CharString name="G">
          -46 callgsubr
          hstem
          110 176 872 163 vstem
          110 750 -80 callgsubr
        </CharString>
        <CharString name="Gbreve">
          -46 callgsubr
          104 132 17 callgsubr
          194 677 1 163 hintmask 00010100
          819 1642 -94 callsubr
          hintmask 11101010
          -709 -892 -80 callgsubr
        </CharString>
        <CharString name="Gcaron">
          -46 callgsubr
          150 -21 17 callgsubr
          191 681 0 163 hintmask 11101010
          110 750 -104 callgsubr
          hintmask 00000000
          635 917 -71 callgsubr
          hintmask 00010100
          -71 callsubr
          endchar
        </CharString>
        <CharString name="Gcircumflex">
          -46 callgsubr
          122 -21 68 -21 17 callgsubr
          181 706 -15 163 hintmask 11100101
          110 750 -104 callgsubr
          hintmask 00000000
          461 889 -95 callsubr
          hintmask 00011010
          -41 callsubr
        </CharString>
        <CharString name="Gcommaaccent">
          141 -539 -21 544 130 508 127 656 133 17 callgsubr
          496 143 233 163 hintmask 10000100
          710 -103 callgsubr
          hintmask 01111010
          -720 847 -80 callgsubr
        </CharString>
        <CharString name="Gdotaccent">
          -46 callgsubr
          174 -21 17 callgsubr
          420 227 225 163 hintmask 00010100
          812 1691 -91 callgsubr
          hintmask 11101010
          -702 -941 -80 callgsubr
        </CharString>
        <CharString name="Gtilde">
          -46 callgsubr
          129 127 27 123 17 callgsubr
          122 822 -72 163 hintmask 11100101
          110 750 -104 callgsubr
          hintmask 00000000
          364 963 rmoveto
          hintmask 00010010
          -47 callgsubr
          hintmask 00011010
          -73 callsubr
          hintmask 00010010
          -10 callgsubr
          endchar
        </CharString>
        <CharString name="H">
          48 callgsubr
          hstem
          -25 callsubr
          792 169 vstem
          -2 callsubr
          endchar
        </CharString>
        <CharString name="Hbar">
          249 21 -21 703 130 252 108 329 -20 hstem
          -25 callsubr
          800 169 vstem
          40 callsubr
          703 800 -703 169 1085 215 108 -215 329 -169 -329 -800 329 -169 -329 -195 -108 195 hlineto
          169 -252 rmoveto
          252 800 -252 vlineto
          endchar
        </CharString>
        <CharString name="Hcircumflex">
          48 callgsubr
          158 -21 68 -21 -48 callsubr
          45 706 41 169 hintmask 11100101
          -2 callsubr
          hintmask 00000000
          318 117 -95 callsubr
          hintmask 00011010
          -41 callsubr
        </CharString>
        <CharString name="I">
          -688 52 callgsubr
          221 171 vstem
          -65 callgsubr
          endchar
        </CharString>
        <CharString name="I.uc">
          -688 -69 callsubr
          210 -21 hstemhm
          200 227 -206 171 hintmask 11001000
          -65 callgsubr
          hintmask 00110000
          85 169 -37 callsubr
        </CharString>
        <CharString name="IJ">
          6 -69 callsubr
          hstemhm
          221 171 514 172 hintmask 11100000
          -65 callgsubr
          hintmask 01010000
          353 -1765 -91 callsubr
          endchar
        </CharString>
        <CharString name="IJ_acutecomb">
          6 -69 callsubr
          178 11 callsubr
          221 171 469 458 -413 172 hintmask 11011010
          260 -81 callsubr
          386 -1903 -91 callsubr
          -353 243 rmoveto
          171 1522 -171 hlineto
          hintmask 00100100
          712 66 -101 callgsubr
          endchar
        </CharString>
        <CharString name="Iacute">
          -688 56 callgsubr
          188 458 -425 171 hintmask 11001000
          -65 callgsubr
          hintmask 00110000
          39 67 -101 callgsubr
          endchar
        </CharString>
        <CharString name="Ibreve">
          -688 -69 callsubr
          140 132 hstemhm
          -31 677 -425 171 hintmask 11001000
          -65 callgsubr
          hintmask 00110000
          87 120 -26 callgsubr
        </CharString>
        <CharString name="Icircumflex">
          -688 -69 callsubr
          158 12 callgsubr
          -45 706 -440 171 -3 callsubr
          -162 117 -95 callsubr
          hintmask 00111000
          -41 callsubr
        </CharString>
        <CharString name="Idieresis">
          -688 -69 callsubr
          188 5 callgsubr
          -45 225 41 171 42 226 -3 callsubr
          318 168 -37 callgsubr
        </CharString>
        <CharString name="Idotaccent">
          -688 -69 callsubr
          210 -21 hstemhm
          194 227 -200 171 hintmask 11001000
          -65 callgsubr
          hintmask 00110000
          79 169 -37 callsubr
        </CharString>
        <CharString name="Igrave">
          -688 56 callgsubr
          -31 458 -206 171 hintmask 11001000
          -65 callgsubr
          hintmask 00110000
          135 67 -35 callsubr
        </CharString>
        <CharString name="Imacron">
          -688 -69 callsubr
          241 124 hstemhm
          38 543 -360 171 hintmask 11001000
          -65 callgsubr
          hintmask 00110000
          -183 221 -57 callsubr
          endchar
        </CharString>
        <CharString name="Iogonek">
          -688 58 callsubr
          420 -56 callgsubr
          hstemhm
          34 164 23 171 hintmask 00000000
          hintmask 11101000
          221 hmoveto
          20 hlineto
          hintmask 11111000
          37 callsubr
          111 -77 141 hhcurveto
          84 90 28 callsubr
          -52 -1 rrcurveto
          -83 -70 40 92 -1 hvcurveto
          -2 118 90 95 85 54 rrcurveto
          hintmask 11101000
          21 1522 -171 hlineto
          endchar
        </CharString>
        <CharString name="Itilde">
          -688 -69 callsubr
          165 127 27 123 hstemhm
          -103 822 -498 171 -3 callsubr
          -258 191 rmoveto
          hintmask 00101000
          -47 callgsubr
          hintmask 00111000
          -73 callsubr
          hintmask 00101000
          -10 callgsubr
          endchar
        </CharString>
        <CharString name="J">
          -607 1522 -20 hstem
          293 172 vstem
          -39 -243 -91 callsubr
          endchar
        </CharString>
        <CharString name="Jcircumflex">
          -607 1522 -20 158 12 callgsubr
          24 706 -437 172 hintmask 10001000
          -39 -243 -91 callsubr
          hintmask 00000000
          167 1882 -95 callsubr
          hintmask 01110000
          -41 callsubr
        </CharString>
        <CharString name="K">
          63 52 callgsubr
          -25 callsubr
          vstem
          206 hmoveto
          -45 callsubr
        </CharString>
        <CharString name="Kcommaaccent">
          63 -8 callsubr
          1522 44 callgsubr
          286 143 hintmask 10001000
          589 -103 callgsubr
          hintmask 01110000
          -503 97 rmoveto
          -45 callsubr
        </CharString>
        <CharString name="L">
          -235 0 33 callgsubr
          hstem
          206 172 vstem
          0 callgsubr
          8 callgsubr
        </CharString>
        <CharString name="Lacute">
          -235 0 33 callgsubr
          179 -21 hstemhm
          171 458 -423 172 hintmask 00110000
          243 -81 callsubr
          hintmask 11001000
          35 -1660 -1 callgsubr
        </CharString>
        <CharString name="Lcaron">
          -235 0 133 904 648 -163 -20 hstemhm
          206 172 381 150 hintmask 10110000
          0 callgsubr
          -42 callgsubr
          hintmask 01001000
          584 -485 -77 callsubr
        </CharString>
        <CharString name="Lcommaaccent">
          -235 -539 -21 560 33 callgsubr
          hstemhm
          206 172 181 143 hintmask 10001000
          487 -103 callgsubr
          hintmask 01110000
          -401 97 -1 callgsubr
        </CharString>
        <CharString name="Ldot">
          35 0 133 597 -21 813 -20 hstemhm
          206 172 532 233 hintmask 01001000
          910 833 rmoveto
          -74 callsubr
          hintmask 10110000
          -704 -833 -1 callgsubr
        </CharString>
        <CharString name="Lslash">
          -235 0 33 callgsubr
          hstem
          206 172 vstem
          0 callgsubr
          801 133 -629 554 hlineto
          469 172 -41 106 -428 -158 rlineto
          715 -172 -779 vlineto
          -194 -71 41 -104 153 56 rlineto
          endchar
        </CharString>
        <CharString name="M">
          624 6 -21 35 -21 22 -21 1397 125 hstemhm
          149 1629 hintmask 00000000
          hintmask 01011000
          149 -1 30 callgsubr
          hintmask 10011000
          25 callsubr
          hintmask 00111000
          -18 callsubr
        </CharString>
        <CharString name="N">
          24 callgsubr
          hstem
          57 callsubr
          832 155 vstem
          -58 callgsubr
          endchar
        </CharString>
        <CharString name="NULL">
          55 callgsubr
        </CharString>
        <CharString name="Nacute">
          252 56 callgsubr
          57 callsubr
          306 458 68 155 hintmask 00101000
          739 -81 callsubr
          hintmask 11010100
          -462 -1660 rmoveto
          -98 callgsubr
          endchar
        </CharString>
        <CharString name="Ncaron">
          24 callgsubr
          165 113 -92 -21 hstemhm
          57 callsubr
          85 681 66 155 hintmask 00000000
          hintmask 00010100
          714 1667 -71 callgsubr
          hintmask 00100100
          -71 callsubr
          hintmask 11001010
          -241 -1936 rmoveto
          -98 callgsubr
          endchar
        </CharString>
        <CharString name="Ncommaaccent">
          252 -8 callsubr
          1522 -20 hstemhm
          57 callsubr
          362 143 327 155 hintmask 10001000
          651 -103 callgsubr
          hintmask 01110100
          -566 97 rmoveto
          -98 callgsubr
          endchar
        </CharString>
        <CharString name="Ntilde">
          24 callgsubr
          165 127 27 123 hstemhm
          57 callsubr
          16 822 -6 155 hintmask 00000000
          hintmask 00100100
          443 1713 rmoveto
          hintmask 00110100
          -47 callgsubr
          hintmask 00100100
          -73 callsubr
          hintmask 00110100
          -10 callgsubr
          hintmask 11001010
          -172 -1767 rmoveto
          -98 callgsubr
          endchar
        </CharString>
        <CharString name="O">
          -60 callsubr
          hstem
          13 callgsubr
          1008 171 vstem
          -83 callsubr
          endchar
        </CharString>
        <CharString name="OE">
          756 -16 128 -112 134 586 132 539 131 -113 129 27 callgsubr
          170 814 169 hintmask 00000000
          hintmask 10101110
          110 764 rmoveto
          -9 -454 265 -334 420 8 128 3 95 31 85 56 rrcurveto
          hintmask 01110110
          -74 897 134 -728 586 485 132 -485 539 654 131 -823 vlineto
          hintmask 01101110
          -50 vlineto
          -85 50 -104 18 -89 -2 rrcurveto
          hintmask 10101110
          -403 -13 -294 -258 -9 -503 rrcurveto
          683 -652 rmoveto
          -339 -174 298 345 455 264 199 268 125 92 -35 -51 65 hvcurveto
          -1105 vlineto
          -61 -70 -103 -45 -128 hhcurveto
          endchar
        </CharString>
        <CharString name="Oacute">
          -60 callsubr
          143 34 callsubr
          407 458 143 171 hintmask 00101000
          761 -81 callsubr
          hintmask 11010100
          -578 -891 -107 callsubr
          endchar
        </CharString>
        <CharString name="Obreve">
          -60 callsubr
          104 132 17 callsubr
          188 677 143 171 hintmask 00101000
          809 1642 -94 callsubr
          hintmask 11010100
          -698 -873 -107 callsubr
          endchar
        </CharString>
        <CharString name="Ocircumflex">
          -60 callsubr
          122 -21 68 34 callsubr
          175 706 127 171 hintmask 11001010
          -83 callsubr
          hintmask 00000000
          -224 1525 -95 callsubr
          hintmask 00110100
          -41 callsubr
        </CharString>
        <CharString name="Odieresis">
          -60 callsubr
          152 232 -211 34 callsubr
          175 19 callsubr
          128 171 hintmask 00000000
          hintmask 00010010
          1041 -38 callsubr
          hintmask 11001001
          -450 -921 -107 callsubr
          endchar
        </CharString>
        <CharString name="Ograve">
          -60 callsubr
          143 34 callsubr
          188 458 362 171 hintmask 00101000
          857 1589 -80 callsubr
          hintmask 11010100
          -746 -820 -107 callsubr
          endchar
        </CharString>
        <CharString name="Ohungarumlaut">
          -60 callsubr
          122 -21 74 34 callsubr
          181 824 3 171 hintmask 11001010
          -83 callsubr
          hintmask 00110100
          -227 1525 -59 callsubr
        </CharString>
        <CharString name="Omacron">
          -60 callsubr
          205 124 17 callsubr
          257 543 208 171 hintmask 00101000
          539 23 callsubr
          hintmask 11010100
          -428 -1098 -107 callsubr
          endchar
        </CharString>
        <CharString name="Omega">
          49 callgsubr
          201 170 1046 170 vstem
          212 -66 callsubr
        </CharString>
        <CharString name="Oslash">
          -60 callsubr
          hstem
          13 callgsubr
          1008 171 vstem
          -76 callgsubr
          endchar
        </CharString>
        <CharString name="Oslashacute">
          -60 callsubr
          143 34 callsubr
          337 458 213 171 hintmask 11010100
          -76 callgsubr
          hintmask 00101000
          75 1447 -101 callgsubr
          endchar
        </CharString>
        <CharString name="Otilde">
          -60 callsubr
          129 127 27 123 17 callsubr
          117 822 69 171 hintmask 00000000
          hintmask 00100100
          465 1713 rmoveto
          hintmask 00110100
          -47 callgsubr
          hintmask 00100100
          -73 callsubr
          hintmask 00110100
          -10 callgsubr
          hintmask 11001010
          -288 -998 -107 callsubr
          endchar
        </CharString>
        <CharString name="P">
          -22 47 callgsubr
          762 31 callgsubr
          649 169 hintmask 00000000
          hintmask 11101100
          206 hmoveto
          -12 callgsubr
          hintmask 11011100
          13 callsubr
          hlineto
          169 -858 rmoveto
          hintmask 11101100
          -7 callsubr
          hintmask 11011100
          -61 -114 4 8 -62 hvcurveto
          endchar
        </CharString>
        <CharString name="Q">
          269 -287 138 133 130 1295 129 hstem
          110 171 1008 171 vstem
          110 769 rmoveto
          -9 -460 258 -334 420 9 rrcurveto
          7 7 1 7 hhcurveto
          -216 158 167 -56 208 hhcurveto
          74 72 17 21 31 hvcurveto
          123 vlineto
          -18 -43 -83 -5 -52 hhcurveto
          -161 -129 58 100 -83 hvcurveto
          291 77 201 256 9 422 9 466 -257 311 -403 -3 -385 -3 -304 -260 -10 -506 rrcurveto
          674 -655 rmoveto
          -332 -2 -173 298 2 348 2 433 229 215 291 3 320 2 167 -289 -1 -350 -3 -426 -202 -230 -300 -2 rrcurveto
          endchar
        </CharString>
        <CharString name="R">
          11 callgsubr
          hstemhm
          206 169 640 173 hintmask 00000000
          hintmask 11101100
          206 hmoveto
          -89 callsubr
          hintmask 11011100
          3 callsubr
          hintmask 11101100
          -52 callsubr
          hintmask 11011100
          32 callgsubr
          endchar
        </CharString>
        <CharString name="Racute">
          11 callgsubr
          178 -21 -48 callsubr
          208 458 -26 173 hintmask 00000000
          hintmask 11100101
          206 hmoveto
          -89 callsubr
          hintmask 11010101
          3 callsubr
          hintmask 11100101
          -52 callsubr
          hintmask 11010101
          32 callgsubr
          hintmask 00001010
          280 806 -101 callgsubr
          endchar
        </CharString>
        <CharString name="Rcaron">
          11 callgsubr
          164 113 -92 -21 -48 callsubr
          -14 681 -27 173 -30 callsubr
          hintmask 0000010100000000
          629 1667 -71 callgsubr
          hintmask 0000100100000000
          -71 callsubr
          -30 callsubr
          -155 -1936 rmoveto
          -89 callsubr
          hintmask 1110001010000000
          3 callsubr
          hintmask 1101001010000000
          -52 callsubr
          hintmask 1110001010000000
          32 callgsubr
          endchar
        </CharString>
        <CharString name="Rcommaaccent">
          58 -539 -21 581 49 callsubr
          hstemhm
          206 169 286 143 211 173 hintmask 10000010
          589 -103 callgsubr
          hintmask 00000000
          -503 97 rmoveto
          -89 callsubr
          hintmask 01110101
          3 callsubr
          hintmask 01101101
          -52 callsubr
          hintmask 01110101
          32 callgsubr
          endchar
        </CharString>
        <CharString name="S">
          -15 callsubr
          hstem
          140 162 600 166 vstem
          136 74 -88 callsubr
        </CharString>
        <CharString name="Sacute">
          -15 callsubr
          143 46 callgsubr
          196 458 -54 166 hintmask 11010100
          136 74 -105 callsubr
          hintmask 00101000
          393 1376 -101 callgsubr
          endchar
        </CharString>
        <CharString name="Scaron">
          -15 callsubr
          150 46 callgsubr
          -25 681 -56 166 hintmask 11010100
          136 74 -105 callsubr
          hintmask 00000000
          368 1454 -31 callsubr
        </CharString>
        <CharString name="Scircumflex">
          -15 callsubr
          122 -21 68 46 callgsubr
          -36 706 -70 166 hintmask 11001010
          136 74 -105 callsubr
          hintmask 00000000
          193 1426 -95 callsubr
          hintmask 00110100
          -41 callsubr
        </CharString>
        <CharString name="T">
          -22 21 44 callsubr
          hstem
          553 171 vstem
          553 hmoveto
          -34 callgsubr
        </CharString>
        <CharString name="Tbar">
          -22 21 -21 666 112 613 131 hstem
          553 171 vstem
          553 hmoveto
          171 666 301 112 -301 613 498 131 -1160 -131 491 -613 -299 -112 299 hlineto
          endchar
        </CharString>
        <CharString name="Tcaron">
          -22 21 44 callsubr
          51 callgsubr
          293 681 -421 171 hintmask 00000000
          hintmask 00011000
          561 1667 -71 callgsubr
          hintmask 00101000
          -71 callsubr
          hintmask 11000100
          260 -1936 rmoveto
          -34 callgsubr
        </CharString>
        <CharString name="Thorn">
          -32 52 callgsubr
          -25 callsubr
          vstem
          40 callsubr
          304 hlineto
          1 -5 -4 0 -4 hhcurveto
          126 vlineto
          -1 4 4 -1 5 hhcurveto
          675 vlineto
          -13 -2 -56 125 rlineto
          20 24 2 1 25 hvcurveto
          292 -169 vlineto
          169 -1218 rmoveto
          125 vlineto
          -9 68 94 -5 63 hhcurveto
          245 171 90 285 234 -136 107 -267 -5 hvcurveto
          -72 -2 -103 -9 -63 -11 rrcurveto
          126 vlineto
          6 89 111 12 93 hhcurveto
          320 197 -139 -317 -331 -215 -169 -353 -96 -98 9 3 -48 hvcurveto
          endchar
        </CharString>
        <CharString name="U">
          -55 callgsubr
          -5 callsubr
          797 168 hintmask 00000000
          hintmask 10111000
          171 644 -82 callsubr
          hintmask 11011000
          -93 callsubr
          hintmask 10111000
          -36 callsubr
          endchar
        </CharString>
        <CharString name="Uacute">
          -55 callgsubr
          178 45 callsubr
          290 458 49 168 hintmask 00010100
          701 -81 callsubr
          hintmask 00000000
          -458 -1016 -82 callsubr
          hintmask 10101010
          -93 callsubr
          hintmask 11001010
          -36 callsubr
          endchar
        </CharString>
        <CharString name="Ubreve">
          -55 callgsubr
          139 132 -5 callsubr
          71 677 49 168 hintmask 00010100
          749 1642 -94 callsubr
          hintmask 00000000
          -578 -998 -82 callsubr
          hintmask 10101010
          -93 callsubr
          hintmask 11001010
          -36 callsubr
          endchar
        </CharString>
        <CharString name="Ucircumflex">
          -55 callgsubr
          157 -21 68 45 callsubr
          57 706 34 168 hintmask 00000000
          hintmask 10100101
          171 644 -82 callsubr
          hintmask 11000101
          -93 callsubr
          hintmask 10100101
          -36 callsubr
          hintmask 00000000
          329 116 -95 callsubr
          hintmask 00011010
          -41 callsubr
        </CharString>
        <CharString name="Udieresis">
          -55 callgsubr
          187 232 -211 45 callsubr
          57 19 callsubr
          35 168 -30 callsubr
          hintmask 0000100100000000
          980 1690 -7 callgsubr
          hintmask 0001000100000000
          -33 callgsubr
          hintmask 0000100100000000
          16 callgsubr
          hintmask 0000101000000000
          -25 callgsubr
          hintmask 0001001000000000
          -34 callsubr
          hintmask 0000101000000000
          16 callsubr
          -30 callsubr
          -329 -1046 -82 callsubr
          hintmask 1010010010000000
          -93 callsubr
          hintmask 1100010010000000
          -36 callsubr
          endchar
        </CharString>
        <CharString name="Ugrave">
          -55 callgsubr
          178 45 callsubr
          71 458 268 168 hintmask 00010100
          797 1589 -80 callsubr
          hintmask 00000000
          -626 -945 -82 callsubr
          hintmask 10101010
          -93 callsubr
          hintmask 11001010
          -36 callsubr
          endchar
        </CharString>
        <CharString name="Uhungarumlaut">
          -55 callgsubr
          157 -21 74 45 callsubr
          64 824 -91 168 hintmask 00000000
          hintmask 10100101
          171 644 -82 callsubr
          hintmask 11000101
          -93 callsubr
          hintmask 10100101
          -36 callsubr
          hintmask 00011010
          327 116 -59 callsubr
        </CharString>
        <CharString name="Umacron">
          -55 callgsubr
          240 124 -5 callsubr
          140 543 114 168 hintmask 00010100
          479 23 callsubr
          hintmask 00000000
          -308 -1223 -82 callsubr
          hintmask 10101010
          -93 callsubr
          hintmask 11001010
          -36 callsubr
          endchar
        </CharString>
        <CharString name="Uogonek">
          173 58 callsubr
          383 133 1405 -20 21 -20 -5 callsubr
          249 165 383 168 hintmask 00000000
          hintmask 11011110
          588 -306 rmoveto
          -136 1 104 -70 137 hhcurveto
          84 97 32 callsubr
          -25 -58 -15 -52 -1 rrcurveto
          -83 -65 31 93 -1 hvcurveto
          -2 96 98 112 96 77 rrcurveto
          240 71 119 212 352 vvcurveto
          hintmask 11101110
          -93 callsubr
          hintmask 11011110
          1 839 rlineto
          -169 -879 hlineto
          -428 -1 172 -232 402 hhcurveto
          16 15 0 1 15 hvcurveto
          -101 -69 -103 -120 2 -102 rrcurveto
          endchar
        </CharString>
        <CharString name="Uring">
          173 -16 133 1342 97 -34 -20 21 -20 374 95 -5 callsubr
          99 20 callgsubr
          79 168 -30 callsubr
          hintmask 1001010010000000
          171 644 -82 callsubr
          hintmask 1010010010000000
          -93 callsubr
          hintmask 1001010010000000
          -36 callsubr
          hintmask 0100101100000000
          573 -64 -75 callgsubr
        </CharString>
        <CharString name="Utilde">
          -55 callgsubr
          164 127 27 123 -5 callsubr
          -1 822 -24 168 hintmask 00000000
          hintmask 00010010
          404 1713 rmoveto
          hintmask 00011010
          -47 callgsubr
          hintmask 00010010
          -73 callsubr
          hintmask 00011010
          -10 callgsubr
          hintmask 00000000
          -167 -1123 -82 callsubr
          hintmask 10100101
          -93 callsubr
          hintmask 11000101
          -36 callsubr
          endchar
        </CharString>
        <CharString name="V">
          30 5 -21 1538 -20 hstem
          31 1270 vstem
          605 -16 rmoveto
          142 hlineto
          554 1538 58 callgsubr
          -370 -1085 -76 -244 -76 244 -391 1085 rlineto
          -179 hlineto
          endchar
        </CharString>
        <CharString name="W">
          4 callgsubr
          hstem
          32 1846 vstem
          444 -16 -87 callgsubr
        </CharString>
        <CharString name="Wacute">
          4 callgsubr
          179 -21 hstemhm
          32 1846 -1042 458 hintmask 00101000
          908 -81 callsubr
          hintmask 11010000
          -392 -1676 -87 callgsubr
        </CharString>
        <CharString name="Wcircumflex">
          4 callgsubr
          158 12 callgsubr
          32 1846 -1275 706 hintmask 11001000
          444 -16 -85 callsubr
          hintmask 00000000
          675 117 -95 callsubr
          hintmask 00110100
          -41 callsubr
        </CharString>
        <CharString name="Wdieresis">
          4 callgsubr
          188 5 callgsubr
          32 1846 -1275 19 callsubr
          hintmask 00000000
          hintmask 00010010
          1187 -38 callsubr
          hintmask 11001000
          -263 -1706 -87 callgsubr
        </CharString>
        <CharString name="Wgrave">
          4 callgsubr
          179 -21 hstemhm
          32 1846 -1261 458 hintmask 00101000
          1004 1589 -80 callsubr
          hintmask 11010000
          -560 -1605 -87 callgsubr
        </CharString>
        <CharString name="X">
          29 -69 callsubr
          21 -20 hstemhm
          73 1184 hintmask 00000000
          hintmask 10110000
          73 hmoveto
          183 hlineto
          309 503 91 152 94 -152 314 -503 rlineto
          193 hlineto
          -494 758 rlineto
          hintmask 11010000
          480 764 rlineto
          -183 hlineto
          -283 -464 -105 -177 -107 177 rlineto
          hintmask 10110000
          -295 465 -191 -1 484 -740 rlineto
          endchar
        </CharString>
        <CharString name="Y">
          -52 52 callgsubr
          548 172 vstem
          -83 callgsubr
          endchar
        </CharString>
        <CharString name="Yacute">
          -52 56 callgsubr
          526 458 -436 172 hintmask 11001000
          -83 callgsubr
          hintmask 00110000
          50 1005 -101 callgsubr
          endchar
        </CharString>
        <CharString name="Ycircumflex">
          31 callsubr
          158 12 callgsubr
          294 706 -452 172 hintmask 11000100
          -83 callgsubr
          hintmask 00000000
          -150 1055 -95 callsubr
          hintmask 00111000
          -41 callsubr
        </CharString>
        <CharString name="Ydieresis">
          31 callsubr
          188 5 callgsubr
          294 225 29 172 53 226 hintmask 11000100
          -83 callgsubr
          hintmask 00000000
          330 1106 -37 callgsubr
        </CharString>
        <CharString name="Ygrave">
          -52 56 callgsubr
          307 458 -217 172 hintmask 11001000
          -83 callgsubr
          hintmask 00110000
          146 1005 -35 callsubr
        </CharString>
        <CharString name="Z">
          -6 callsubr
          hstemhm
          106 1114 hintmask 00000000
          hintmask 11010000
          106 66 -43 callsubr
          hintmask 10110000
          19 callgsubr
          hintmask 11010000
          -6 callgsubr
        </CharString>
        <CharString name="Zacute">
          -6 callsubr
          159 -21 hstemhm
          106 1114 -654 458 hintmask 00000000
          hintmask 11001000
          106 66 -43 callsubr
          hintmask 10101000
          19 callgsubr
          hintmask 11001000
          -43 callgsubr
          hintmask 00010100
          -276 314 -101 callgsubr
          endchar
        </CharString>
        <CharString name="Zcaron">
          -6 callsubr
          51 callgsubr
          106 1114 -875 681 hintmask 00000000
          hintmask 00001010
          613 1667 -71 callgsubr
          hintmask 00010010
          -71 callsubr
          hintmask 00000000
          -239 -1870 -43 callsubr
          hintmask 11000100
          19 callgsubr
          hintmask 10100100
          -6 callgsubr
        </CharString>
        <CharString name="Zdotaccent">
          -6 callsubr
          190 -21 hstemhm
          106 1114 -647 227 hintmask 00010100
          679 1691 -91 callgsubr
          hintmask 00000000
          -573 -1625 -43 callsubr
          hintmask 11001000
          19 callgsubr
          hintmask 10101000
          -6 callgsubr
        </CharString>
        <CharString name="a">
          -62 callsubr
          hstem
          110 165 526 166 vstem
          -107 callgsubr
          endchar
        </CharString>
        <CharString name="aacute">
          -62 callsubr
          542 -21 15 callgsubr
          186 457 -117 166 hintmask 11101010
          -107 callgsubr
          hintmask 00010100
          272 1001 -49 callsubr
        </CharString>
        <CharString name="abreve">
          -62 callsubr
          178 130 15 callgsubr
          -31 118 439 166 -161 114 hintmask 11101010
          -107 callgsubr
          hintmask 00010101
          307 1021 -92 callsubr
        </CharString>
        <CharString name="acircumflex">
          -62 callsubr
          145 390 15 callgsubr
          -63 737 -148 166 hintmask 11101010
          -107 callgsubr
          hintmask 00010100
          34 988 -30 callgsubr
        </CharString>
        <CharString name="acute">
          47 callsubr
          136 1315 -49 callsubr
        </CharString>
        <CharString name="acute.cap">
          -737 1681 -21 hstem
          56 458 vstem
          128 -81 callsubr
          endchar
        </CharString>
        <CharString name="adieresis">
          -62 callsubr
          15 callgsubr
          526 166 vstemhm
          -107 callgsubr
          525 1094 -22 callgsubr
        </CharString>
        <CharString name="ae">
          26 callsubr
          27 callgsubr
          168 523 164 599 157 hintmask 00000000
          hintmask 11001111
          110 301 -59 callgsubr
          hintmask 10110111
          -29 callsubr
          hintmask 11001111
          -21 callgsubr
          hintmask 10101111
          -12 callsubr
          hintmask 11001111
          -163 -62 88 117 hvcurveto
          endchar
        </CharString>
        <CharString name="aeacute">
          26 callsubr
          543 -21 27 callgsubr
          168 521 457 -455 164 599 157 hintmask 0000010100000000
          885 1315 -101 callsubr
          -30 callsubr
          -689 -1082 -59 callgsubr
          hintmask 1100101011000000
          -29 callsubr
          hintmask 1011001011000000
          -21 callgsubr
          hintmask 1100101011000000
          -12 callsubr
          hintmask 1010101011000000
          -163 -62 88 117 hvcurveto
          endchar
        </CharString>
        <CharString name="afii61352">
          1268 21 -21 87 126 232 118 849 120 -10 -20 hstemhm
          206 154 749 154 269 165 606 164 -30 callsubr
          hintmask 1111011110000000
          1532 1007 rmoveto
          -299 -3 126 -263 339 hhcurveto
          270 199 194 336 4 hvcurveto
          300 3 -136 257 -324 hhcurveto
          -268 -205 -187 -338 -5 hvcurveto
          -1326 -1007 rmoveto
          154 1036 hlineto
          -10 247 151 -285 616 -998 rlineto
          146 hlineto
          hintmask 1110111110000000
          1522 -154 -1061 vlineto
          8 -226 -128 257 -634 1030 rlineto
          -149 hlineto
          1491 -516 rmoveto
          hintmask 1111011110000000
          261 120 147 189 -2 vhcurveto
          201 -2 96 -186 -244 vvcurveto
          -1 -263 -113 -157 -191 3 rrcurveto
          hintmask 1110111110000000
          -206 3 -96 195 1 245 rrcurveto
          hintmask 1111011110000000
          -101 -919 rmoveto
          816 126 -816 hlineto
          endchar
        </CharString>
        <CharString name="agrave">
          -62 callsubr
          542 -21 15 callgsubr
          -44 457 113 166 hintmask 11101010
          -107 callgsubr
          hintmask 00010100
          328 1001 -84 callsubr
        </CharString>
        <CharString name="amacron">
          -62 callsubr
          295 124 15 callgsubr
          37 543 -54 166 hintmask 11101010
          -107 callgsubr
          hintmask 00010100
          37 1138 -57 callsubr
          endchar
        </CharString>
        <CharString name="ampersand">
          231 -16 103 -103 122 1321 119 hstemhm
          148 157 -7 155 477 143 138 144 hintmask 00000000
          hintmask 01110110
          148 386 rmoveto
          -261 243 -141 361 115 127 37 47 92 vhcurveto
          -56 77 69 -28 95 hhcurveto
          53 32 7 8 28 hvcurveto
          hintmask 10101110
          88 vlineto
          -91 -2 -68 16 -78 55 rrcurveto
          102 87 50 119 152 vvcurveto
          100 -23 80 -12 34 vhcurveto
          -147 hlineto
          12 -29 26 -86 -99 vvcurveto
          -123 -40 -83 -69 -64 vhcurveto
          -110 116 -207 262 -87 119 rrcurveto
          218 99 157 132 242 vvcurveto
          172 -137 160 -235 -243 -160 -131 -218 -158 96 -138 90 -115 vhcurveto
          hintmask 01110110
          -179 -79 -157 -119 -202 vvcurveto
          477 454 rmoveto
          hintmask 01101110
          -102 139 -70 74 147 vvcurveto
          157 108 70 136 149 84 -110 -105 vhcurveto
          hintmask 01110110
          -192 -130 -107 -175 -73 vhcurveto
          -320 -450 rmoveto
          143 117 89 138 65 vhcurveto
          107 -147 187 -242 128 -139 rrcurveto
          -33 -77 -80 -20 -82 hhcurveto
          -310 -128 133 151 hvcurveto
          endchar
        </CharString>
        <CharString name="aogonek">
          -156 58 callsubr
          383 125 -90 -21 577 107 348 127 15 callgsubr
          303 164 59 6 callgsubr
          hintmask 11011111
          -35 callgsubr
          145 -119 202 162 129 66 56 62 vhcurveto
          hintmask 10111111
          1 -42 rlineto
          -36 6 -20 14 -10 vhcurveto
          -113 -57 -142 -120 2 -133 rrcurveto
          -136 108 -64 133 84 96 21 41 54 vhcurveto
          55 callsubr
          -65 26 93 -1 hvcurveto
          hintmask 11011111
          -1 119 125 90 86 55 rrcurveto
          15 823 hlineto
          286 -157 64 -232 -185 -195 -88 -26 -39 vhcurveto
          41 -110 rlineto
          43 60 159 54 116 hhcurveto
          170 96 -32 -184 hvcurveto
          -132 vlineto
          -119 -192 -17 -50 -134 hvcurveto
          -159 -59 -87 -105 -150 vvcurveto
          165 13 rmoveto
          101 59 64 114 43 vhcurveto
          40 97 174 13 82 hhcurveto
          -367 vlineto
          -28 -26 -126 -71 -143 hhcurveto
          -164 -67 85 120 hvcurveto
          endchar
        </CharString>
        <CharString name="approxequal">
          125 307 143 30 142 141 143 30 142 hstemhm
          216 993 hintmask 00000000
          hintmask 01001000
          304 354 2 callsubr
          hintmask 11001000
          -27 callsubr
          hintmask 01001000
          30 callsubr
          hintmask 00000000
          88 387 2 callsubr
          hintmask 00011000
          -27 callsubr
          hintmask 00111000
          30 callsubr
          endchar
        </CharString>
        <CharString name="aring">
          -62 callsubr
          175 97 334 95 15 callgsubr
          -2 20 callgsubr
          -91 166 hintmask 1110010010000000
          -107 callgsubr
          hintmask 0001101100000000
          304 1018 -74 callgsubr
          endchar
        </CharString>
        <CharString name="asciicircum">
          62 1531 -20 hstem
          189 985 vstem
          189 509 rmoveto
          161 hlineto
          330 839 334 -839 rlineto
          160 hlineto
          -417 1022 rlineto
          -154 hlineto
          endchar
        </CharString>
        <CharString name="asciitilde">
          137 660 143 30 142 hstemhm
          222 993 hintmask 00000000
          hintmask 01100000
          310 707 2 callsubr
          hintmask 11100000
          -27 callsubr
          hintmask 01100000
          30 callsubr
          endchar
        </CharString>
        <CharString name="asterisk">
          -75 1154 -20 hstemhm
          542 134 -127 133 hintmask 00000000
          hintmask 10100000
          544 648 rmoveto
          146 1 -16 280 -1 6 -26 154 -2 5 rlinecurve
          133 -104 235 -150 74 129 -250 128 -157 57 156 61 247 133 -72 124 rlineto
          hintmask 11000000
          -238 -152 -128 -108 26 165 10 281 rlineto
          -146 hlineto
          14 -283 rlineto
          2 -6 27 -154 -4 vvcurveto
          -131 104 -237 151 -71 -126 248 -130 6 -1 148 -54 4 -2 rlinecurve
          -157 -60 -246 -134 73 -125 rlineto
          hintmask 10100000
          236 152 128 110 -25 -167 rlineto
          endchar
        </CharString>
        <CharString name="at">
          917 -465 113 350 135 -131 122 832 115 361 112 hstemhm
          224 135 293 143 529 112 427 136 -30 callsubr
          hintmask 1011111110000000
          224 425 rmoveto
          -603 370 -287 480 187 186 49 57 85 vhcurveto
          -30 100 rlineto
          -37 -65 -140 -56 -208 hhcurveto
          -388 -342 217 575 605 406 387 459 343 296 -136 -488 -383 -201 -301 -181 -53 -2 93 214 28 hvcurveto
          27 203 66 276 36 130 -133 -26 rcurveline
          39 -63 -90 18 -92 hhcurveto
          -380 -167 -356 -280 -6 hvcurveto
          hintmask 1101111110000000
          -299 -6 152 -138 135 hhcurveto
          151 143 201 205 97 hvcurveto
          -16 -103 -2 -82 3 -36 rrcurveto
          hintmask 1011111110000000
          -111 6 35 -70 93 hhcurveto
          271 285 299 534 452 -305 257 -441 -572 -457 -439 -680 hvcurveto
          hintmask 1101111110000000
          571 39 rmoveto
          227 5 135 265 255 hhcurveto
          71 94 -22 -49 37 hvcurveto
          -245 -38 -242 -507 -146 hhcurveto
          -113 -62 127 204 4 hvcurveto
          endchar
        </CharString>
        <CharString name="atilde">
          -62 callsubr
          206 4 callsubr
          110 165 -105 822 -191 166 hintmask 1110001010000000
          -107 callgsubr
          -30 callsubr
          -39 1094 -67 callsubr
        </CharString>
        <CharString name="b">
          -57 -17 1678 hstem
          184 167 vstem
          -67 callgsubr
          endchar
        </CharString>
        <CharString name="backslash">
          39 callsubr
          66 721 vstem
          217 1599 rmoveto
          -151 hlineto
          571 -1962 rlineto
          150 hlineto
          endchar
        </CharString>
        <CharString name="bar">
          -459 -187 1967 hstem
          344 154 vstem
          344 -187 rmoveto
          154 1967 -154 hlineto
          endchar
        </CharString>
        <CharString name="braceleft">
          43 callsubr
          369 159 vstem
          369 2 rmoveto
          -152 35 -45 122 109 102 8 20 86 vhcurveto
          85 -295 664 vlineto
          29 -12 25 -22 22 vhcurveto
          -34 35 -109 57 -68 28 68 29 107 53 33 32 rrcurveto
          25 21 12 26 33 vvcurveto
          657 295 92 vlineto
          9 -81 -107 11 -109 hhcurveto
          -123 -34 -45 -152 hvcurveto
          -575 vlineto
          -49 -114 -41 -137 -45 vhcurveto
          -110 vlineto
          128 -37 123 -56 -46 vvcurveto
          endchar
        </CharString>
        <CharString name="braceright">
          43 callsubr
          458 159 vstem
          617 585 rmoveto
          46 123 56 128 37 vhcurveto
          110 vlineto
          -137 45 -114 41 49 vvcurveto
          575 vlineto
          152 -34 45 -123 -109 -107 -11 -9 -81 vhcurveto
          -92 295 -657 vlineto
          -33 12 -26 25 -21 vhcurveto
          33 -32 107 -53 68 -29 -68 -28 -109 -57 -34 -35 rrcurveto
          -22 -22 -12 -25 -29 vvcurveto
          -664 -295 -85 vlineto
          -20 86 102 -8 109 hhcurveto
          122 35 45 152 hvcurveto
          endchar
        </CharString>
        <CharString name="bracketleft">
          41 callsubr
          226 160 vstem
          226 2 rmoveto
          -152 28 -41 122 104 117 7 13 91 vhcurveto
          87 vlineto
          -302 2 rlineto
          1709 302 90 vlineto
          9 -91 -117 11 -104 hhcurveto
          -122 -28 -41 -152 hvcurveto
          endchar
        </CharString>
        <CharString name="bracketright">
          41 callsubr
          455 160 vstem
          615 1544 rmoveto
          152 -28 41 -122 -104 -117 -11 -9 -91 vhcurveto
          -90 302 -1709 vlineto
          -302 -2 rlineto
          -87 vlineto
          -13 91 117 -7 104 hhcurveto
          122 28 41 152 hvcurveto
          endchar
        </CharString>
        <CharString name="breve">
          -526 1335 130 hstem
          49 33 callsubr
          vstem
          387 1335 -92 callsubr
        </CharString>
        <CharString name="breve.cap">
          -529 1642 132 hstem
          48 677 vstem
          387 1642 -26 callgsubr
        </CharString>
        <CharString name="brokenbar">
          -459 -186 1966 hstem
          344 154 vstem
          344 946 rmoveto
          154 834 -154 hlineto
          -1966 vmoveto
          154 831 -154 hlineto
          endchar
        </CharString>
        <CharString name="bullet">
          -449 548 354 hstem
          255 342 vstem
          418 548 rmoveto
          94 81 81 99 4 hvcurveto
          98 5 -74 76 -94 hhcurveto
          -93 -81 -78 -100 -5 hvcurveto
          -95 -5 74 -81 94 hhcurveto
          endchar
        </CharString>
        <CharString name="c">
          -8 callgsubr
          hstem
          106 162 vstem
          106 553 -100 callsubr
          endchar
        </CharString>
        <CharString name="cacute">
          -8 callgsubr
          543 -21 hstemhm
          106 162 226 457 hintmask 00101000
          580 1315 -101 callsubr
          hintmask 11010000
          -388 -830 -100 callsubr
          endchar
        </CharString>
        <CharString name="caron">
          -477 1668 11 callsubr
          48 737 hintmask 00000000
          hintmask 01100000
          345 1301 -2 callgsubr
          hintmask 10100000
          -70 callgsubr
          hintmask 01100000
          -45 callgsubr
          endchar
        </CharString>
        <CharString name="caron.cap">
          -539 1667 113 -92 -21 hstemhm
          49 681 hintmask 00000000
          hintmask 01100000
          317 1667 -71 callgsubr
          hintmask 10100000
          -71 callsubr
          endchar
        </CharString>
        <CharString name="caronvertical">
          -996 1037 648 hstem
          115 150 vstem
          146 1037 -77 callsubr
        </CharString>
        <CharString name="ccaron">
          -8 callgsubr
          45 callgsubr
          106 162 -22 737 hintmask 00000000
          hintmask 00010100
          543 1322 -2 callgsubr
          hintmask 00100100
          -70 callgsubr
          hintmask 00010100
          -45 callgsubr
          hintmask 11001000
          -140 -1116 -100 callsubr
          endchar
        </CharString>
        <CharString name="ccedilla">
          -289 -464 119 330 125 917 129 hstem
          106 162 272 121 vstem
          304 9 callgsubr
          74 -24 53 131 6 118 41 67 61 -35 96 rcurveline
          -32 -49 -107 -47 -132 hhcurveto
          -194 -170 157 319 8 hvcurveto
          298 8 172 143 187 hhcurveto
          107 94 -21 -41 56 hvcurveto
          29 132 rlineto
          27 -40 -103 32 -134 hhcurveto
          -348 -191 -258 -345 1 hvcurveto
          -299 151 -230 267 -35 vhcurveto
          13 -38 7 -52 -7 -79 rrcurveto
          -118 -6 -57 -47 -80 hhcurveto
          -37 -36 7 11 -17 hvcurveto
          endchar
        </CharString>
        <CharString name="ccircumflex">
          -8 callgsubr
          146 390 hstemhm
          106 162 -23 737 hintmask 00101000
          342 1302 -92 callgsubr
          hintmask 11010000
          -139 -792 -100 callsubr
          endchar
        </CharString>
        <CharString name="cdotaccent">
          -8 callgsubr
          232 242 hstemhm
          106 162 232 230 hintmask 11010000
          106 553 -100 callsubr
          hintmask 00101000
          501 835 -103 callsubr
          endchar
        </CharString>
        <CharString name="cedilla">
          -833 -464 119 hstem
          293 124 vstem
          268 21 rmoveto
          19 -41 15 -57 -9 -103 -63 callsubr
          6 113 -18 89 -39 51 -34 4 rcurveline
          endchar
        </CharString>
        <CharString name="cent">
          -107 -14 124 917 127 hstemhm
          170 162 267 114 -70 114 hintmask 00000000
          hintmask 11110000
          170 553 rmoveto
          -303 155 -233 276 -29 vhcurveto
          -4 -204 rlineto
          115 hlineto
          3 202 123 9 110 40 63 58 rlinecurve
          -35 96 rlineto
          -32 -49 -107 -47 -132 hhcurveto
          -194 -170 157 319 8 hvcurveto
          298 8 172 143 187 hhcurveto
          107 94 -21 -41 56 hvcurveto
          29 132 rlineto
          hintmask 11101000
          -35 24 -85 27 -111 6 6 219 rcurveline
          -114 hlineto
          -6 -221 rlineto
          hintmask 11110000
          -305 -32 -166 -245 1 -322 rrcurveto
          endchar
        </CharString>
        <CharString name="circumflex">
          -468 1302 390 hstem
          48 737 vstem
          145 1302 -30 callgsubr
        </CharString>
        <CharString name="circumflex.cap">
          -497 1660 -21 66 -21 23 -21 hstemhm
          49 706 hintmask 00000000
          hintmask 10110000
          153 1639 -95 callsubr
          hintmask 11010000
          -41 callsubr
        </CharString>
        <CharString name="colon">
          -700 5 -21 845 -21 hstemhm
          184 233 hintmask 10100000
          184 108 rmoveto
          -74 callsubr
          hintmask 01100000
          824 vmoveto
          -74 callsubr
          endchar
        </CharString>
        <CharString name="colonmonetary">
          20 -16 134 -113 -21 24 -21 1413 138 hstemhm
          107 168 336 110 -90 237 -91 214 hintmask 00000000
          hintmask 00111101
          523 34 rmoveto
          -26 -388 rlineto
          90 hlineto
          hintmask 01011101
          24 360 55 -14 60 -7 62 -1 rlinecurve
          -22 -338 rlineto
          hintmask 00111010
          91 hlineto
          22 341 159 11 82 40 79 26 rlinecurve
          -2 144 -46 -30 -114 -43 -149 -13 rlinecurve
          84 1267 115 -17 56 -31 33 -11 rlinecurve
          24 150 rlineto
          hintmask 00111101
          -43 9 -63 24 -112 14 19 288 rcurveline
          -91 hlineto
          -19 -279 rlineto
          1 -27 -29 1 -32 hhcurveto
          -31 -30 -2 -4 -30 hvcurveto
          19 283 rlineto
          hintmask 00111010
          -90 hlineto
          -20 -300 rlineto
          -295 -76 -219 -264 -421 vvcurveto
          hintmask 00111101
          -351 156 -263 260 -106 vhcurveto
          hintmask 10011101
          97 115 rmoveto
          83 1241 rlineto
          7 35 36 3 38 hhcurveto
          25 23 -1 -1 22 hvcurveto
          -85 -1280 rlineto
          -64 -59 11 20 -54 hvcurveto
          -87 44 rmoveto
          -166 106 -92 211 256 vvcurveto
          313 131 207 205 78 vhcurveto
          endchar
        </CharString>
        <CharString name="comma">
          -700 -478 -21 hstem
          307 158 vstem
          201 -26 callsubr
          endchar
        </CharString>
        <CharString name="commaaccent">
          -966 -539 -21 hstem
          129 143 vstem
          57 -103 callgsubr
          endchar
        </CharString>
        <CharString name="copyright">
          832 95 99 287 120 730 120 283 97 hstem
          204 109 314 148 1044 -49 callgsubr
          314 -4 rmoveto
          -256 169 -224 275 132 113 41 49 61 vhcurveto
          -35 96 rlineto
          -30 -52 -88 -36 -111 hhcurveto
          -193 -123 149 222 211 121 148 206 107 71 -32 -36 51 hvcurveto
          26 124 rlineto
          25 -36 -76 39 -130 hhcurveto
          -316 -172 -210 -280 hvcurveto
          endchar
        </CharString>
        <CharString name="currency">
          229 310 125 632 125 hstem
          322 135 613 136 vstem
          216 277 rmoveto
          97 -97 203 205 rlineto
          -48 71 85 -27 91 hhcurveto
          94 88 29 49 71 hvcurveto
          202 -202 96 96 -200 200 rlineto
          58 74 34 93 102 vvcurveto
          101 -34 93 -57 74 vhcurveto
          203 203 -97 96 -205 -204 rlineto
          49 -72 -87 29 -94 hhcurveto
          -92 -86 -28 -48 -71 hvcurveto
          -203 205 -95 -98 199 -200 rlineto
          -58 -74 -35 -95 -103 vvcurveto
          -104 35 -95 59 -75 vhcurveto
          41 274 rmoveto
          174 138 142 169 170 136 -142 -174 -173 -136 -143 -170 -169 -138 143 173 vhcurveto
          endchar
        </CharString>
        <CharString name="d">
          -62 14 callsubr
          38 callsubr
          hintmask 00000000
          hintmask 10111000
          -58 callsubr
          hintmask 01111000
          -63 callgsubr
          hintmask 10111000
          -94 callgsubr
          endchar
        </CharString>
        <CharString name="dagger">
          -275 1148 122 hstemhm
          436 153 -147 141 hintmask 00000000
          hintmask 10100000
          446 200 rmoveto
          133 hlineto
          9 949 312 -2 rlineto
          125 vlineto
          hintmask 11000000
          -312 -3 3 389 rlineto
          -156 hlineto
          3 -389 -311 3 -1 -125 rlineto
          hintmask 10100000
          312 2 rlineto
          endchar
        </CharString>
        <CharString name="daggerdbl">
          -275 498 122 528 122 hstemhm
          435 139 -137 150 -144 138 -132 140 hintmask 00000000
          hintmask 11001000
          126 497 rmoveto
          hintmask 11000100
          311 3 12 -856 rlineto
          hintmask 11100000
          126 hlineto
          hintmask 11001000
          12 856 312 -3 rlineto
          125 vlineto
          hintmask 11010000
          -312 -2 rlineto
          529 vlineto
          313 -2 rlineto
          125 vlineto
          -313 -3 4 389 rlineto
          -157 hlineto
          3 -389 -310 3 -1 -125 311 2 rlineto
          -529 vlineto
          -311 2 rlineto
          endchar
        </CharString>
        <CharString name="dcaron">
          278 14 callsubr
          -119 648 38 callsubr
          294 150 hintmask 00000000
          hintmask 10101100
          -58 callsubr
          hintmask 01101100
          -63 callgsubr
          hintmask 10101100
          -94 callgsubr
          hintmask 00010010
          787 922 -77 callsubr
        </CharString>
        <CharString name="dcroat">
          -62 14 callsubr
          169 108 38 callsubr
          hintmask 00000000
          hintmask 10111100
          -58 callsubr
          hintmask 01111100
          -69 vlineto
          -63 34 -6 51 vhcurveto
          72 1337 155 108 -155 231 -167 -231 -294 -108 294 -139 hlineto
          3 -68 rlineto
          20 -52 -77 18 -92 hhcurveto
          hintmask 10111100
          -94 callgsubr
          endchar
        </CharString>
        <CharString name="degree">
          -392 947 103 455 104 hstem
          121 111 445 110 vstem
          454 947 rmoveto
          189 144 139 192 189 -147 142 -186 -188 -145 -140 -191 -188 149 -143 184 hvcurveto
          103 vmoveto
          -123 -99 99 129 131 97 96 125 124 99 -98 -129 -132 -97 -96 -126 hvcurveto
          endchar
        </CharString>
        <CharString name="dieresis">
          -519 1408 225 hstemhm
          57 34 callgsubr
          hintmask 00000000
          hintmask 11100000
          608 1408 -22 callgsubr
        </CharString>
        <CharString name="dieresis.cap">
          -496 1690 5 callgsubr
          50 19 callsubr
          hintmask 00000000
          hintmask 01010000
          634 1690 -7 callgsubr
          hintmask 10010000
          -33 callgsubr
          hintmask 01010000
          16 callgsubr
          hintmask 01100000
          -25 callgsubr
          hintmask 10100000
          -34 callsubr
          hintmask 01100000
          16 callsubr
          endchar
        </CharString>
        <CharString name="divide">
          92 261 240 208 130 219 241 hstemhm
          587 232 hintmask 00000000
          hintmask 11110000
          694 1058 rmoveto
          65 60 49 79 66 -35 47 -73 -63 -61 -53 -76 -72 48 -40 59 hvcurveto
          -462 -349 rmoveto
          929 130 -929 hlineto
          354 -466 rmoveto
          -72 49 -40 58 66 59 49 79 65 -35 47 -73 -63 -61 -53 -75 vhcurveto
          endchar
        </CharString>
        <CharString name="dollar">
          81 -235 242 -23 135 1286 133 -27 241 hstemhm
          242 162 206 124 -79 124 225 6 callgsubr
          hintmask 10010010
          653 1511 rmoveto
          125 hlineto
          3 241 rlineto
          -124 hlineto
          hintmask 10010100
          -46 -1745 rmoveto
          -2 -242 rlineto
          124 hlineto
          3 242 rlineto
          hintmask 01101001
          -498 67 -88 callsubr
        </CharString>
        <CharString name="dong">
          28 0 151 140 138 681 138 145 128 hstem
          157 178 522 165 vstem
          573 291 rmoveto
          180 87 69 41 44 hvcurveto
          -70 vlineto
          -8 1 -32 20 vhcurveto
          117 1102 266 128 -266 173 -165 -173 -345 -128 345 -37 hlineto
          3 -127 rlineto
          9 -43 -69 10 -84 hhcurveto
          -319 -188 -189 -323 -303 195 -142 221 hvcurveto
          10 138 rmoveto
          -115 -133 85 226 210 74 160 252 137 44 -26 -15 15 hvcurveto
          -544 vlineto
          -21 -24 -38 -75 -212 hhcurveto
          -470 -429 rmoveto
          1105 151 -1105 hlineto
          endchar
        </CharString>
        <CharString name="dotaccent">
          -971 1388 242 hstem
          50 230 vstem
          157 1388 -103 callsubr
          endchar
        </CharString>
        <CharString name="dotaccent.cap">
          -971 1712 -21 hstem
          51 227 vstem
          157 1691 -37 callsubr
        </CharString>
        <CharString name="dotlessi">
          21 -38 callgsubr
          hstem
          211 166 vstem
          211 hmoveto
          -69 callgsubr
          endchar
        </CharString>
        <CharString name="dotlessj">
          -739 -14 callgsubr
          1633 -20 hstemhm
          211 6 callgsubr
          hintmask 10110000
          211 -41 rmoveto
          -53 callsubr
          hintmask 01110000
          -124 vlineto
          hintmask 10110000
          -75 callsubr
          vlineto
          endchar
        </CharString>
        <CharString name="e">
          -60 callgsubr
          hstem
          104 163 600 157 vstem
          104 565 -99 callsubr
        </CharString>
        <CharString name="eacute">
          -60 callgsubr
          543 -21 hstemhm
          104 163 215 457 -72 157 hintmask 00010100
          568 1315 -101 callsubr
          hintmask 11101010
          -378 -818 -99 callsubr
        </CharString>
        <CharString name="ebreve">
          -60 callgsubr
          179 130 hstemhm
          104 163 -2 33 callsubr
          -74 157 hintmask 11101001
          104 565 -106 callsubr
          hintmask 00010110
          -264 670 -92 callsubr
        </CharString>
        <CharString name="ecaron">
          -60 callgsubr
          45 callgsubr
          104 163 -33 737 -104 157 hintmask 00000000
          hintmask 00001010
          531 1322 -2 callgsubr
          hintmask 00010010
          -70 callgsubr
          hintmask 00001010
          -45 callgsubr
          hintmask 11100101
          -130 -1104 -99 callsubr
        </CharString>
        <CharString name="ecircumflex">
          -60 callgsubr
          146 390 hstemhm
          104 163 -34 737 -103 157 hintmask 00010100
          330 1302 -92 callgsubr
          hintmask 11101010
          -129 -780 -99 callsubr
        </CharString>
        <CharString name="edieresis">
          -60 callgsubr
          252 225 hstemhm
          104 163 3 34 callgsubr
          -71 157 hintmask 00000000
          hintmask 00010110
          821 1408 -88 callgsubr
          hintmask 11101001
          -266 -843 -99 callsubr
        </CharString>
        <CharString name="edotaccent">
          -60 callgsubr
          232 242 hstemhm
          104 163 221 230 149 157 hintmask 11101010
          104 565 -106 callsubr
          hintmask 00010100
          -272 723 -103 callsubr
          endchar
        </CharString>
        <CharString name="egrave">
          -60 callgsubr
          543 -21 hstemhm
          104 163 -15 457 158 157 hintmask 11101010
          104 565 -106 callsubr
          hintmask 00010100
          -243 650 -84 callsubr
        </CharString>
        <CharString name="eight">
          -4 -16 118 1346 117 hstemhm
          157 161 -101 154 578 153 -104 165 hintmask 00000000
          hintmask 11100100
          157 385 rmoveto
          -289 264 -112 246 260 238 129 278 -2 vhcurveto
          -2 195 -173 107 -185 97 rrcurveto
          hintmask 11011000
          205 97 94 176 154 vvcurveto
          211 -180 137 -251 -242 -212 -120 -248 -194 123 -112 148 -87 vhcurveto
          hintmask 11100100
          -227 -101 -104 -159 -159 vvcurveto
          hintmask 11011000
          531 466 rmoveto
          -169 91 -148 97 168 vvcurveto
          153 129 88 166 180 107 -105 -148 -4 vhcurveto
          -2 -155 -111 -138 -148 -51 rrcurveto
          hintmask 11100100
          -370 -453 rmoveto
          157 126 127 159 59 vhcurveto
          197 -100 198 -84 -186 vvcurveto
          -169 -149 -100 -175 -232 -124 112 184 vhcurveto
          endchar
        </CharString>
        <CharString name="ellipsis">
          682 -16 260 hstemhm
          214 233 1089 233 hintmask 00000000
          hintmask 11100000
          1536 106 rmoveto
          -71 2 50 -51 59 hhcurveto
          65 58 60 79 -1 hvcurveto
          64 -2 -37 57 -72 hhcurveto
          -64 27 callsubr
          -3 hvcurveto
          64 -1 -37 57 -73 hhcurveto
          -63 27 callsubr
          -2 hvcurveto
          64 -2 -37 57 -72 hhcurveto
          -64 -59 -63 -75 1 hvcurveto
          endchar
        </CharString>
        <CharString name="emacron">
          -60 callgsubr
          296 124 hstemhm
          104 163 66 543 -9 157 hintmask 11101010
          104 565 -106 callsubr
          hintmask 00010100
          -534 787 -57 callsubr
          endchar
        </CharString>
        <CharString name="emdash">
          1042 705 135 hstem
          240 1863 vstem
          240 705 rmoveto
          1863 135 -1863 hlineto
          endchar
        </CharString>
        <CharString name="endash">
          391 705 135 hstem
          240 1212 vstem
          240 705 rmoveto
          1212 135 -1212 hlineto
          endchar
        </CharString>
        <CharString name="eng">
          -7 -507 118 -83 -21 514 54 callgsubr
          -18 -20 hstemhm
          193 168 581 6 callgsubr
          hintmask 10110110
          193 hmoveto
          168 879 hlineto
          87 68 149 67 109 3 rrcurveto
          174 6 62 -72 -247 vvcurveto
          -740 vlineto
          -258 -50 -94 -135 -1 vhcurveto
          -29 -59 5 7 -19 hvcurveto
          hintmask 01110110
          -116 vlineto
          hintmask 10110110
          -7 16 87 -7 38 hhcurveto
          214 103 184 309 hvcurveto
          722 vlineto
          336 -90 118 -245 -5 vhcurveto
          -170 -5 -178 -98 -83 -61 rrcurveto
          hintmask 10101110
          146 -149 vlineto
          endchar
        </CharString>
        <CharString name="eogonek">
          -173 58 callsubr
          383 126 443 112 372 119 hstem
          104 163 261 165 174 157 vstem
          104 565 rmoveto
          -365 177 -216 320 46 48 5 8 48 vhcurveto
          -109 -71 -108 -130 2 -108 rrcurveto
          -136 1 110 -64 133 hhcurveto
          85 96 28 callsubr
          -51 -1 rrcurveto
          -83 -68 26 93 -1 hvcurveto
          -2 123 159 157 113 70 -2 1 rcurveline
          25 18 -32 97 rlineto
          -39 -60 -147 -37 -103 hhcurveto
          -211 -155 110 293 -10 hvcurveto
          -1 13 0 14 13 vvcurveto
          748 hlineto
          9 47 0 55 73 vvcurveto
          -7 260 -161 171 -241 -3 rrcurveto
          -328 -4 -183 -244 -343 vvcurveto
          170 100 rmoveto
          263 30 132 109 169 hhcurveto
          207 67 -163 -209 -12 hvcurveto
          endchar
        </CharString>
        <CharString name="equal">
          96 428 127 431 128 hstem
          241 915 vstem
          241 986 22 callsubr
        </CharString>
        <CharString name="estimated">
          82 -16 98 545 110 520 99 hstem
          109 241 701 223 vstem
          350 259 rmoveto
          368 913 vlineto
          11 51 0 68 86 vvcurveto
          -11 329 -237 200 -290 -5 rrcurveto
          -417 -7 -210 -286 -392 vvcurveto
          -430 229 -257 394 149 197 43 61 85 vhcurveto
          -37 94 rlineto
          -43 -70 -159 -57 -148 hhcurveto
          -171 -141 53 124 -87 hvcurveto
          478 vmoveto
          335 vlineto
          126 85 135 59 156 hhcurveto
          163 101 -56 -81 61 hvcurveto
          -383 vlineto
          endchar
        </CharString>
        <CharString name="eth">
          -94 -27 115 942 125 391 -20 157 -21 hstem
          109 166 674 167 vstem
          109 557 rmoveto
          -362 200 -227 307 5 vhcurveto
          294 4 206 205 430 vvcurveto
          404 -165 336 -289 215 vhcurveto
          -9 6 rlineto
          56 59 79 92 0 vvcurveto
          -90 69 rlineto
          0 -82 -101 -53 -58 vhcurveto
          -80 47 -100 48 -98 30 -40 -97 rcurveline
          72 -23 89 -45 76 -48 -141 -153 rcurveline
          89 -70 141 160 141 -109 113 -154 59 -177 rlinecurve
          -67 69 -93 42 -104 1 rrcurveto
          -298 1 -213 -221 -378 vvcurveto
          166 6 rmoveto
          282 129 185 222 172 114 -82 -97 28 vhcurveto
          11 -98 -2 -98 -81 vvcurveto
          -332 -156 -154 -171 -202 -145 171 304 vhcurveto
          endchar
        </CharString>
        <CharString name="exclam">
          -700 5 -21 hstem
          221 167 vstem
          232 473 -52 callgsubr
          endchar
        </CharString>
        <CharString name="exclamdbl">
          37 5 -21 hstemhm
          251 167 504 167 hintmask 11000000
          262 473 -52 callgsubr
          hintmask 10100000
          719 365 -52 callgsubr
          endchar
        </CharString>
        <CharString name="exclamdown">
          -700 1339 21 hstem
          213 167 vstem
          369 871 rmoveto
          -148 hlineto
          -18 -1307 rlineto
          187 hlineto
          27 1672 rmoveto
          74 -2 -50 50 -59 hhcurveto
          -66 -58 -59 -82 2 hvcurveto
          -68 2 37 -56 73 hhcurveto
          63 60 62 79 -2 hvcurveto
          endchar
        </CharString>
        <CharString name="f">
          43 callgsubr
          hstem
          24 callsubr
          vstem
          -68 callsubr
          endchar
        </CharString>
        <CharString name="f_f">
          301 26 callgsubr
          hintmask 11110000
          -68 callsubr
          hintmask 11101000
          -41 callgsubr
        </CharString>
        <CharString name="f_f_i">
          -86 callgsubr
        </CharString>
        <CharString name="f_f_i_trk">
          889 -62 callgsubr
          634 28 callgsubr
          hintmask 1100110000000000
          272 hmoveto
          -89 callgsubr
          hintmask 1010000010000000
          740 -1014 rmoveto
          -69 callgsubr
          hintmask 0001000100000000
          -50 callsubr
          endchar
        </CharString>
        <CharString name="f_f_l">
          895 26 callgsubr
          576 167 hintmask 10000100
          1816 -20 callsubr
          hintmask 11110000
          -1544 -1664 -102 callsubr
          hintmask 11101000
          -41 callgsubr
        </CharString>
        <CharString name="f_i_trk">
          88 -62 callgsubr
          545 230 -202 166 hintmask 11001100
          -68 callsubr
          hintmask 10100001
          740 -1014 rmoveto
          -69 callgsubr
          hintmask 00010010
          -50 callsubr
          endchar
        </CharString>
        <CharString name="ffi_dflt">
          -86 callgsubr
        </CharString>
        <CharString name="fi">
          -73 callgsubr
        </CharString>
        <CharString name="fi_trk">
          -73 callgsubr
        </CharString>
        <CharString name="five">
          -79 -348 121 779 125 431 144 hstem
          902 169 vstem
          204 -222 rmoveto
          -1 -113 rlineto
          -11 35 56 -2 33 hhcurveto
          473 4 271 298 284 vvcurveto
          271 -158 168 -282 -89 -89 -16 -30 -99 vhcurveto
          49 477 rlineto
          603 hlineto
          16 144 rlineto
          -750 hlineto
          -61 -736 41 -25 108 40 107 22 91 -1 rlinecurve
          226 118 -107 -218 -253 -265 -202 -353 1 hvcurveto
          -33 -20 2 3 -27 hvcurveto
          endchar
        </CharString>
        <CharString name="fl">
          94 -24 callsubr
          408 -19 callsubr
          576 167 hintmask 10001000
          1015 -20 callsubr
          hintmask 11110000
          -743 -1664 -97 callsubr
        </CharString>
        <CharString name="florin">
          -182 1013 128 410 135 4 -21 hstemhm
          219 828 hintmask 00000000
          hintmask 10110000
          325 -356 rmoveto
          164 hlineto
          113 1369 rlineto
          321 hlineto
          9 128 rlineto
          -320 hlineto
          14 115 rlineto
          hintmask 11010000
          218 24 101 77 128 hhcurveto
          89 53 -9 -10 16 hvcurveto
          hintmask 10110000
          10 137 rlineto
          hintmask 11010000
          6 -14 -44 11 -89 hhcurveto
          -219 -181 -131 -346 -42 hvcurveto
          -8 -68 -225 -40 -6 -88 rlineto
          221 hlineto
          endchar
        </CharString>
        <CharString name="four">
          13 0 129 hstem
          827 166 vstem
          104 79 rmoveto
          41 -79 rlineto
          682 -376 166 376 251 129 -251 487 -153 hlineto
          -13 -487 rlineto
          -537 hlineto
          67 115 44 86 400 793 51 120 rlinecurve
          -104 64 rlineto
          -59 hlineto
          -51 -122 -487 -1014 -47 -92 rrcurveto
          endchar
        </CharString>
        <CharString name="four.numr">
          -150 875 116 hstem
          693 156 vstem
          153 875 rmoveto
          -55 callsubr
          -474 -832 rlineto
          endchar
        </CharString>
        <CharString name="foursuperior">
          55 callgsubr
        </CharString>
        <CharString name="fraction">
          -275 21 -21 1530 -20 hstem
          160 691 vstem
          160 hmoveto
          -17 callsubr
        </CharString>
        <CharString name="franc">
          -151 21 -21 266 135 298 131 561 131 hstem
          238 170 vstem
          238 hmoveto
          170 266 267 135 -267 298 509 131 -509 561 681 131 -851 -1121 -209 -135 209 hlineto
          endchar
        </CharString>
        <CharString name="g">
          -72 callsubr
          -51 callsubr
          515 -11 callgsubr
          hintmask 1111010001000000
          121 -194 -85 callgsubr
          hintmask 1111000110000000
          -99 callgsubr
          hintmask 1110101010000000
          -81 callgsubr
          hintmask 1111000110000000
          -50 callgsubr
          hintmask 1111010001000000
          -19 callgsubr
          hintmask 1110101010000000
          -93 callgsubr
          hintmask 1111010001000000
          -96 callgsubr
          endchar
        </CharString>
        <CharString name="gbreve">
          -72 callsubr
          179 130 -51 callsubr
          -79 33 callsubr
          -82 -11 callgsubr
          hintmask 1111001000001000
          121 -194 -85 callgsubr
          hintmask 1111000010010000
          -99 callgsubr
          hintmask 1110100100010000
          -81 callgsubr
          hintmask 1111000010010000
          -50 callgsubr
          hintmask 1111001000001000
          -19 callgsubr
          hintmask 1110100100010000
          -93 callgsubr
          hintmask 1111001000001000
          -96 callgsubr
          hintmask 0000010001100000
          322 1509 -92 callsubr
        </CharString>
        <CharString name="gcaron">
          -72 callsubr
          533 -21 22 -21 -51 callsubr
          -122 737 -100 -11 callgsubr
          hintmask 1111000100001000
          121 -194 -85 callgsubr
          hintmask 1111000001010000
          -99 callgsubr
          hintmask 1110100010010000
          -81 callgsubr
          hintmask 1111000001010000
          -50 callgsubr
          hintmask 1111000100001000
          -19 callgsubr
          hintmask 1110100010010000
          -93 callgsubr
          hintmask 1111000100001000
          -96 callgsubr
          -30 callsubr
          238 1496 -2 callgsubr
          hintmask 0000001000100000
          -70 callgsubr
          hintmask 0000010000100000
          -45 callgsubr
          endchar
        </CharString>
        <CharString name="gcircumflex">
          -72 callsubr
          146 390 -51 callsubr
          -112 737 -110 166 -39 160 hintmask 0000010001000000
          332 1302 -92 callgsubr
          -30 callsubr
          -114 -1539 -85 callgsubr
          hintmask 1111001000010000
          -99 callgsubr
          hintmask 1111000010100000
          -81 callgsubr
          hintmask 1110100100100000
          -50 callgsubr
          hintmask 1111000010100000
          -19 callgsubr
          hintmask 1111001000010000
          -93 callgsubr
          hintmask 1110100100100000
          -96 callgsubr
          endchar
        </CharString>
        <CharString name="gcommaaccent">
          -72 callsubr
          175 478 -51 callsubr
          134 143 238 166 -39 160 hintmask 0000010001000000
          582 1331 rmoveto
          119 69 rlineto
          38 vlineto
          -40 9 -37 61 70 vvcurveto
          83 36 71 32 24 vhcurveto
          21 vlineto
          -57 32 rlineto
          -62 -26 -92 -103 -142 vvcurveto
          -105 47 -81 54 -21 vhcurveto
          -30 callsubr
          -461 -1525 -85 callgsubr
          hintmask 1111001000010000
          -99 callgsubr
          hintmask 1111000010100000
          -81 callgsubr
          hintmask 1110100100100000
          -50 callgsubr
          hintmask 1111000010100000
          -19 callgsubr
          hintmask 1111001000010000
          -93 callgsubr
          hintmask 1110100100100000
          -96 callgsubr
          endchar
        </CharString>
        <CharString name="gdotaccent">
          -72 callsubr
          232 242 -51 callsubr
          144 230 141 -11 callgsubr
          hintmask 1111001000010000
          121 -194 -85 callgsubr
          hintmask 1111000010100000
          -99 callgsubr
          hintmask 1110100100100000
          -81 callgsubr
          hintmask 1111000010100000
          -50 callgsubr
          hintmask 1111001000010000
          -19 callgsubr
          hintmask 1110100100100000
          -93 callgsubr
          hintmask 1111001000010000
          -96 callgsubr
          hintmask 0000010001000000
          314 1562 -103 callsubr
          endchar
        </CharString>
        <CharString name="germandbls">
          -30 -16 118 -81 -21 1460 119 hstemhm
          191 167 343 155 60 166 -24 169 hintmask 00000000
          hintmask 01111100
          191 hmoveto
          167 975 hlineto
          354 139 131 192 122 105 -46 -127 vhcurveto
          -199 -215 -52 -181 vvcurveto
          hintmask 10111010
          -289 356 -25 1 -248 vhcurveto
          -133 -108 -58 -111 -120 -79 27 20 -38 vhcurveto
          -132 vlineto
          -17 40 91 -16 100 hhcurveto
          185 209 87 240 hvcurveto
          332 -371 27 204 vvcurveto
          hintmask 10111100
          141 226 57 236 vvcurveto
          185 -178 86 -187 -249 -211 -132 -304 -53 vhcurveto
          -160 -30 rlineto
          -99 147 -28 vlineto
          endchar
        </CharString>
        <CharString name="grave">
          47 callsubr
          422 1315 -84 callsubr
        </CharString>
        <CharString name="grave.cap">
          -737 1681 -21 hstem
          50 458 vstem
          437 1589 -35 callsubr
        </CharString>
        <CharString name="greater">
          67 254 1039 hstem
          235 962 vstem
          1197 834 rmoveto
          -962 459 rlineto
          -156 vlineto
          789 -364 -789 -360 rlineto
          -159 vlineto
          962 458 rlineto
          endchar
        </CharString>
        <CharString name="greaterequal">
          67 0 124 hstem
          230 965 vstem
          1195 834 rmoveto
          -965 448 rlineto
          -154 vlineto
          798 -355 -798 -355 rlineto
          -155 vlineto
          965 448 rlineto
          -587 vmoveto
          -965 -124 965 hlineto
          endchar
        </CharString>
        <CharString name="gtilde">
          -72 callsubr
          207 127 22 126 -100 -20 -51 callsubr
          -139 822 -168 -11 callgsubr
          hintmask 1111000010000100
          121 -194 -85 callgsubr
          hintmask 1111000000101000
          -99 callgsubr
          hintmask 1110100001001000
          -81 callgsubr
          hintmask 1111000000101000
          -50 callgsubr
          hintmask 1111000010000100
          -19 callgsubr
          hintmask 1110100001001000
          -93 callgsubr
          hintmask 1111000010000100
          -96 callgsubr
          -30 callsubr
          -10 1582 rmoveto
          hintmask 0000010100010000
          -47 callsubr
          hintmask 0000011000010000
          -72 callgsubr
          hintmask 0000010100010000
          -22 callsubr
        </CharString>
        <CharString name="guillemotleft">
          630 106 1025 hstemhm
          245 697 29 697 hintmask 11000000
          245 542 -27 callgsubr
          hintmask 10100000
          726 -141 -27 callgsubr
          endchar
        </CharString>
        <CharString name="guillemotright">
          630 106 1025 hstemhm
          262 697 29 697 hintmask 11000000
          959 683 -17 callgsubr
          653 436 rlineto
          726 141 -17 callgsubr
          rlineto
          hintmask 10100000
          653 436 rlineto
          endchar
        </CharString>
        <CharString name="guilsinglleft">
          -97 106 1025 hstem
          245 697 vstem
          245 542 -27 callgsubr
          endchar
        </CharString>
        <CharString name="guilsinglright">
          -97 106 1025 hstem
          262 697 vstem
          959 683 -17 callgsubr
          653 436 rlineto
          endchar
        </CharString>
        <CharString name="h">
          8 35 callgsubr
          hstem
          12 callsubr
          596 167 vstem
          -66 callgsubr
          507 -167 vlineto
          endchar
        </CharString>
        <CharString name="hbar">
          8 35 callgsubr
          152 101 hstem
          12 callsubr
          596 167 vstem
          -66 callgsubr
          152 271 101 -271 254 -167 -254 -149 -101 149 vlineto
          endchar
        </CharString>
        <CharString name="hcircumflex">
          8 35 callgsubr
          503 -21 68 -21 15 callsubr
          47 706 -157 167 hintmask 11001010
          -66 callgsubr
          507 -167 vlineto
          hintmask 00000000
          318 -25 -95 callsubr
          hintmask 00110100
          -41 callsubr
        </CharString>
        <CharString name="hungarumlaut">
          -284 1333 463 hstem
          47 883 vstem
          126 1333 -64 callgsubr
          endchar
        </CharString>
        <CharString name="hungarumlaut.cap">
          -346 1660 -21 74 -21 hstem
          54 824 vstem
          149 1639 -59 callsubr
        </CharString>
        <CharString name="hyphen">
          7 callsubr
        </CharString>
        <CharString name="i">
          -68 callgsubr
        </CharString>
        <CharString name="i.cy">
          -68 callgsubr
        </CharString>
        <CharString name="i.dot">
          -68 callgsubr
        </CharString>
        <CharString name="iacute">
          21 -38 callgsubr
          580 -21 hstemhm
          172 457 -418 166 hintmask 00110000
          258 1315 -101 callsubr
          hintmask 11001000
          39 -1383 rmoveto
          -69 callgsubr
          endchar
        </CharString>
        <CharString name="ibreve">
          21 -38 callgsubr
          216 130 hstemhm
          -45 118 138 166 140 114 hintmask 11001000
          211 hmoveto
          -69 callgsubr
          hintmask 00110100
          82 196 -92 callsubr
        </CharString>
        <CharString name="icircumflex">
          21 -38 callgsubr
          183 390 hstemhm
          -77 737 -449 166 hintmask 00110000
          20 1302 -92 callgsubr
          hintmask 11001000
          288 -1345 rmoveto
          -69 callgsubr
          endchar
        </CharString>
        <CharString name="idieresis">
          21 -38 callgsubr
          289 225 hstemhm
          -17 216 12 166 12 217 hintmask 00000000
          hintmask 00110100
          489 1408 rmoveto
          62 55 46 74 62 -30 43 -69 -60 -58 -13 callsubr
          -406 hmoveto
          61 55 46 74 62 -29 43 -69 -59 -59 -13 callsubr
          hintmask 11001000
          128 -1408 rmoveto
          -69 callgsubr
          endchar
        </CharString>
        <CharString name="igrave">
          21 -38 callgsubr
          580 -21 hstemhm
          -58 457 -188 166 hintmask 11001000
          211 hmoveto
          -69 callgsubr
          hintmask 00110000
          103 176 -84 callsubr
        </CharString>
        <CharString name="ij">
          -151 -16 callsubr
          269 242 hstemhm
          183 -20 callgsubr
          392 230 -200 166 -30 callsubr
          hintmask 1001000010000000
          799 -41 rmoveto
          -53 callsubr
          hintmask 0101000010000000
          -124 vlineto
          hintmask 1001000010000000
          -75 callsubr
          vlineto
          hintmask 0011001000000000
          -588 -1139 rmoveto
          -69 callgsubr
          hintmask 0000110000000000
          -50 callsubr
          hintmask 0000100100000000
          586 hmoveto
          64 59 51 78 65 -35 48 -72 -61 -62 -54 -74 -72 49 -42 58 hvcurveto
          endchar
        </CharString>
        <CharString name="ij_acutecomb">
          -151 -16 callsubr
          580 -21 hstemhm
          211 166 116 16 265 457 -432 166 -30 callsubr
          hintmask 1011111010000000
          258 1315 -101 callsubr
          321 -1753 rmoveto
          hintmask 0111111010000000
          -124 vlineto
          hintmask 1011111010000000
          -75 callsubr
          -1180 vlineto
          -53 callsubr
          -282 370 rmoveto
          -69 callgsubr
          hintmask 0000100100000000
          649 176 -49 callsubr
        </CharString>
        <CharString name="imacron">
          21 -38 callgsubr
          333 124 hstemhm
          23 543 -355 166 hintmask 11001000
          211 hmoveto
          -69 callgsubr
          hintmask 00110000
          -188 313 -57 callsubr
          endchar
        </CharString>
        <CharString name="infinity">
          541 229 116 534 125 hstem
          103 151 1334 151 vstem
          510 230 rmoveto
          181 2 142 130 89 134 rrcurveto
          -135 91 114 -132 197 hhcurveto
          262 153 156 248 183 -122 192 -281 -4 hvcurveto
          -178 -3 -144 -136 -87 -134 rrcurveto
          138 -93 -119 135 -203 hhcurveto
          -228 -181 -139 -264 -196 147 -179 260 4 hvcurveto
          491 390 rmoveto
          125 75 106 134 136 hhcurveto
          190 80 -133 -127 -128 -69 -146 -169 -157 -115 154 121 -77 hvcurveto
          -474 -274 rmoveto
          -196 -77 132 131 140 89 130 184 149 100 -155 -119 74 hvcurveto
          -150 -92 -109 -109 -122 hhcurveto
          endchar
        </CharString>
        <CharString name="integral">
          -259 -518 125 1952 125 hstem
          248 154 273 152 vstem
          165 -287 rmoveto
          -64 -102 rlineto
          -79 55 135 -50 130 hhcurveto
          290 116 207 280 hvcurveto
          424 -425 414 400 vvcurveto
          211 82 141 186 116 72 -52 -41 24 vhcurveto
          87 86 rlineto
          99 -59 -121 33 -116 hhcurveto
          -282 -143 -198 -278 hvcurveto
          -421 427 -418 -401 vvcurveto
          -277 -112 -84 -162 -133 -77 73 33 -26 vhcurveto
          endchar
        </CharString>
        <CharString name="iogonek">
          58 callsubr
          420 -21 1139 54 callsubr
          hstemhm
          21 164 -3 320 -291 6 callgsubr
          hintmask 11110100
          289 1388 -103 callsubr
          hintmask 11100010
          -78 -1388 rmoveto
          17 hlineto
          hintmask 11101010
          37 callsubr
          112 -77 140 hhcurveto
          hintmask 11100100
          85 89 28 callsubr
          -51 -1 rrcurveto
          hintmask 11101010
          -84 -69 40 92 -2 hvcurveto
          -1 118 89 95 85 54 rrcurveto
          hintmask 11100010
          19 1139 -166 hlineto
          endchar
        </CharString>
        <CharString name="itilde">
          21 -38 callgsubr
          244 4 callsubr
          -119 822 -492 166 hintmask 11000010
          211 hmoveto
          -69 callgsubr
          hintmask 00000000
          -264 269 rmoveto
          hintmask 00101100
          -47 callsubr
          hintmask 00110100
          -72 callgsubr
          hintmask 00101100
          -22 callsubr
        </CharString>
        <CharString name="j">
          -739 -14 callgsubr
          1633 54 callsubr
          hstemhm
          181 230 -200 6 callgsubr
          hintmask 10100100
          211 -41 rmoveto
          -53 callsubr
          hintmask 01100100
          -124 vlineto
          hintmask 10100100
          -75 callsubr
          vlineto
          hintmask 00011000
          77 -48 callgsubr
          endchar
        </CharString>
        <CharString name="jcircumflex">
          -739 -14 callgsubr
          1633 -20 183 390 hstemhm
          -64 737 -462 6 callgsubr
          hintmask 10100100
          211 -41 rmoveto
          -53 callsubr
          hintmask 01100100
          -124 vlineto
          hintmask 10100100
          -75 callsubr
          vlineto
          hintmask 00011000
          -178 163 -30 callgsubr
        </CharString>
        <CharString name="k">
          -135 21 -38 callgsubr
          hstem
          188 166 vstem
          188 hmoveto
          -28 callgsubr
        </CharString>
        <CharString name="kcommaaccent">
          -135 -8 callsubr
          1139 -20 hstemhm
          188 166 227 143 hintmask 10001000
          509 -103 callgsubr
          hintmask 01110000
          -441 97 rmoveto
          -28 callgsubr
        </CharString>
        <CharString name="kgreenlandic">
          -130 21 -38 callgsubr
          21 -20 hstemhm
          198 6 callgsubr
          hintmask 10110000
          199 hmoveto
          167 200 hlineto
          -5 158 188 196 406 -554 rlineto
          191 hlineto
          -489 667 rlineto
          hintmask 11010000
          450 472 rlineto
          -192 hlineto
          -554 -598 3 99 rlineto
          hintmask 10110000
          500 -167 vlineto
          endchar
        </CharString>
        <CharString name="l">
          -707 21 -21 hstem
          214 167 vstem
          214 -20 callsubr
          endchar
        </CharString>
        <CharString name="lacute">
          -693 21 -21 1533 -20 168 -21 53 callgsubr
          -166 458 hintmask 11010000
          214 hmoveto
          167 1533 -167 hlineto
          hintmask 00101000
          73 56 -101 callgsubr
          endchar
        </CharString>
        <CharString name="lcaron">
          -552 21 -21 1037 648 53 callgsubr
          238 150 hintmask 10100000
          214 -20 callsubr
          hintmask 01010000
          436 -627 -77 callsubr
        </CharString>
        <CharString name="lcommaaccent">
          -707 -8 callsubr
          53 callgsubr
          -125 143 hintmask 10010000
          184 -103 callgsubr
          hintmask 01100000
          -90 97 rmoveto
          -11 callsubr
          endchar
        </CharString>
        <CharString name="ldot">
          -313 21 -21 753 -21 53 callgsubr
          298 233 hintmask 10100000
          214 -20 callsubr
          hintmask 01010000
          465 -808 rmoveto
          -74 callsubr
          endchar
        </CharString>
        <CharString name="less">
          67 254 1039 hstem
          171 962 vstem
          171 712 rmoveto
          962 -458 rlineto
          159 vlineto
          -789 360 789 364 rlineto
          156 vlineto
          -962 -459 rlineto
          endchar
        </CharString>
        <CharString name="lessequal">
          67 0 124 hstem
          173 965 vstem
          173 711 rmoveto
          965 -448 rlineto
          155 vlineto
          -798 355 798 355 rlineto
          154 vlineto
          -965 -448 rlineto
          -834 vmoveto
          965 124 -965 hlineto
          endchar
        </CharString>
        <CharString name="lira">
          193 -24 120 -85 -21 605 106 168 106 436 37 callgsubr
          hintmask 01111110
          36 callsubr
          hintmask 10111110
          -29 callgsubr
          57 59 43 127 5 240 rrcurveto
          410 106 -409 hlineto
          -1 168 rlineto
          432 106 -432 60 hlineto
          -18 callgsubr
          -82 -211 -106 211 -168 -233 -106 233 -130 vlineto
          -144 -68 -88 -21 -39 vhcurveto
          hintmask 01111110
          -146 -8 -66 -60 -72 vvcurveto
          endchar
        </CharString>
        <CharString name="logicalnot">
          169 726 126 hstem
          1073 152 vstem
          235 726 rmoveto
          838 -403 152 529 -990 hlineto
          endchar
        </CharString>
        <CharString name="lozenge">
          -58 21 -21 hstem
          84 1075 vstem
          619 hmoveto
          5 hlineto
          535 762 rlineto
          13 vlineto
          -535 741 rlineto
          -4 hlineto
          -536 -741 rlineto
          -13 vlineto
          536 -538 rmoveto
          -371 541 rlineto
          7 vlineto
          371 524 rlineto
          3 hlineto
          370 -524 rlineto
          -4 vlineto
          -370 -544 rlineto
          endchar
        </CharString>
        <CharString name="lslash">
          -707 21 -21 1148 -20 hstem
          214 167 vstem
          214 hmoveto
          167 951 hlineto
          192 74 rlineto
          123 vlineto
          -192 -77 rlineto
          593 -167 -660 vlineto
          -199 -79 rlineto
          -115 vlineto
          199 76 rlineto
          endchar
        </CharString>
        <CharString name="m">
          677 35 callgsubr
          -18 -20 15 callsubr
          559 167 540 6 callgsubr
          hintmask 11011100
          -65 callsubr
          hintmask 10111100
          -24 callgsubr
          endchar
        </CharString>
        <CharString name="macron">
          -658 1452 124 hstem
          50 543 vstem
          50 1452 -57 callsubr
          endchar
        </CharString>
        <CharString name="macron.cap">
          2 callgsubr
        </CharString>
        <CharString name="minus">
          7 callsubr
        </CharString>
        <CharString name="minute">
          -658 1190 600 hstem
          197 281 vstem
          197 1190 18 callsubr
          endchar
        </CharString>
        <CharString name="mu">
          -70 callsubr
        </CharString>
        <CharString name="multiply">
          69 326 898 hstem
          250 871 vstem
          349 326 rmoveto
          337 354 336 -354 99 98 -348 350 348 353 -99 97 -336 -362 -337 362 -99 -97 348 -356 -348 -347 rlineto
          endchar
        </CharString>
        <CharString name="n">
          51 callsubr
          -18 -20 15 callsubr
          576 -10 callsubr
          hintmask 11011000
          193 hmoveto
          -97 callgsubr
          hintmask 10111000
          -24 callgsubr
          endchar
        </CharString>
        <CharString name="nacute">
          51 callsubr
          542 -21 15 callsubr
          216 457 -97 167 hintmask 00101000
          662 1315 -101 callsubr
          hintmask 00000000
          -383 -1383 rmoveto
          -97 callgsubr
          hintmask 11010100
          -24 callgsubr
          endchar
        </CharString>
        <CharString name="napostrophe">
          -13 -8 callsubr
          1018 139 15 callsubr
          262 143 171 167 hintmask 10001000
          550 -103 callgsubr
          hintmask 00000000
          -477 97 rmoveto
          -97 callgsubr
          hintmask 01110100
          -24 callgsubr
          endchar
        </CharString>
        <CharString name="nbspace">
          -646 endchar
        </CharString>
        <CharString name="ncaron">
          51 callsubr
          532 -21 22 -21 15 callsubr
          -32 737 -129 -10 callsubr
          hintmask 00010100
          625 1322 -2 callgsubr
          hintmask 00100100
          -70 callgsubr
          hintmask 00010100
          -45 callgsubr
          hintmask 00000000
          -135 -1669 rmoveto
          -97 callgsubr
          hintmask 11001010
          -24 callgsubr
          endchar
        </CharString>
        <CharString name="ncommaaccent">
          -13 -8 callsubr
          1018 139 15 callsubr
          262 143 171 167 hintmask 10001000
          550 -103 callgsubr
          hintmask 00000000
          -477 97 rmoveto
          -97 callgsubr
          hintmask 01110100
          -24 callgsubr
          endchar
        </CharString>
        <CharString name="nine">
          95 254 130 761 119 hstem
          180 168 685 178 vstem
          311 -270 rmoveto
          57 -103 rlineto
          385 79 458 412 560 vvcurveto
          315 -172 271 -329 -336 -194 -233 -309 -238 147 -230 265 147 98 48 42 38 vhcurveto
          -40 95 rlineto
          -24 -39 -52 -31 -109 hhcurveto
          -158 -129 135 258 169 119 199 218 258 96 -241 -300 -6 hvcurveto
          -7 -331 -277 -436 -438 -107 rrcurveto
          endchar
        </CharString>
        <CharString name="notequal">
          96 203 1116 -891 127 431 128 hstemhm
          241 915 -730 546 hintmask 10001000
          426 203 rmoveto
          131 hlineto
          116 308 6 15 189 522 5 11 99 260 rlineto
          -133 hlineto
          -97 -259 -6 -12 -189 -522 -5 -13 rlineto
          hintmask 01110000
          -301 473 22 callsubr
        </CharString>
        <CharString name="ntilde">
          51 callsubr
          -18 -20 244 4 callsubr
          193 167 -75 822 -171 167 -30 callsubr
          hintmask 1100001010000000
          193 hmoveto
          -97 callgsubr
          hintmask 1010001010000000
          -24 callgsubr
          -30 callsubr
          158 269 -67 callsubr
        </CharString>
        <CharString name="numbersign">
          255 21 -21 358 119 437 117 hstem
          203 1166 vstem
          383 hmoveto
          143 hlineto
          33 358 rlineto
          376 hlineto
          -31 -358 rlineto
          140 hlineto
          33 358 rlineto
          246 hlineto
          -1 119 rlineto
          -234 hlineto
          40 437 rlineto
          241 117 -230 hlineto
          31 338 rlineto
          -145 hlineto
          -30 -338 rlineto
          -374 hlineto
          32 338 rlineto
          -145 hlineto
          -31 -338 rlineto
          -238 -117 227 hlineto
          -40 -437 rlineto
          -223 -119 212 hlineto
          155 119 rmoveto
          40 437 rlineto
          374 hlineto
          -38 -437 rlineto
          endchar
        </CharString>
        <CharString name="o">
          -39 callsubr
          hstem
          105 170 674 169 vstem
          -96 callsubr
          endchar
        </CharString>
        <CharString name="oacute">
          -39 callsubr
          543 -21 hstemhm
          105 170 224 457 -7 169 hintmask 00101000
          585 1315 -101 callsubr
          hintmask 11010100
          -394 -792 -105 callgsubr
          endchar
        </CharString>
        <CharString name="obreve">
          -39 callsubr
          179 130 hstemhm
          105 170 7 33 callsubr
          -9 169 hintmask 11010010
          -96 callsubr
          hintmask 00101100
          14 1232 -92 callsubr
        </CharString>
        <CharString name="ocircumflex">
          -39 callsubr
          146 390 hstemhm
          105 170 -25 737 -38 169 hintmask 00101000
          347 1302 -92 callgsubr
          hintmask 11010100
          -145 -754 -105 callgsubr
          endchar
        </CharString>
        <CharString name="odieresis">
          -39 callsubr
          252 225 hstemhm
          105 170 12 34 callgsubr
          -6 169 hintmask 00000000
          hintmask 00101100
          838 1408 -88 callgsubr
          hintmask 11010010
          -282 -817 -105 callgsubr
          endchar
        </CharString>
        <CharString name="oe">
          678 -16 119 -119 127 442 112 370 121 hstemhm
          105 170 680 163 599 157 hintmask 00000000
          hintmask 10111110
          105 591 rmoveto
          -322 -4 139 -285 362 hhcurveto
          184 154 81 150 90 hvcurveto
          -149 81 142 -82 198 hhcurveto
          141 170 43 62 76 hvcurveto
          hintmask 01111110
          -33 97 rlineto
          -39 -60 -150 -36 -103 hhcurveto
          -210 -154 109 293 -9 hvcurveto
          -1 13 0 14 13 vvcurveto
          748 hlineto
          8 47 0 55 73 vvcurveto
          -6 260 -161 171 -242 -3 -196 -3 -144 -88 -84 -145 rrcurveto
          142 -76 -133 94 -206 hhcurveto
          hintmask 10111110
          -291 -224 -201 -364 -6 hvcurveto
          1020 74 rmoveto
          263 29 132 109 168 hhcurveto
          207 67 -163 -209 -11 hvcurveto
          -1110 -562 rmoveto
          -232 3 -101 223 1 260 1 285 132 164 214 -3 228 -2 106 -210 -1 -262 -1 -285 -129 -176 -218 3 rrcurveto
          endchar
        </CharString>
        <CharString name="ogonek">
          -682 -511 110 hstem
          51 149 vstem
          51 -307 rmoveto
          -134 2 116 -70 126 hhcurveto
          125 95 41 32 49 hvcurveto
          -15 91 rlineto
          -21 -44 -82 -33 -72 hhcurveto
          -95 -56 42 80 hvcurveto
          -1 116 179 129 99 38 -73 3 rcurveline
          -74 -6 -131 -53 -149 -126 1 -129 rlinecurve
          endchar
        </CharString>
        <CharString name="ograve">
          -39 callsubr
          543 -21 hstemhm
          105 170 -6 457 223 169 hintmask 11010100
          -96 callsubr
          hintmask 00101000
          35 1212 -84 callsubr
        </CharString>
        <CharString name="ohungarumlaut">
          -39 callsubr
          198 463 hstemhm
          105 170 -4 883 -205 169 hintmask 00101000
          350 1354 -64 callgsubr
          hintmask 11010100
          -658 -817 -105 callgsubr
          endchar
        </CharString>
        <CharString name="omacron">
          -39 callsubr
          296 124 hstemhm
          105 170 75 543 56 169 hintmask 00101000
          350 1452 -57 callsubr
          hintmask 11010100
          -245 -985 -105 callgsubr
          endchar
        </CharString>
        <CharString name="one">
          -387 21 -21 hstem
          409 174 vstem
          409 hmoveto
          174 1256 hlineto
          -78 22 -54 -48 -190 -112 -134 -40 rlinecurve
          20 -101 88 21 91 34 83 35 rlinecurve
          endchar
        </CharString>
        <CharString name="one.numr">
          -292 662 1026 hstem
          479 161 vstem
          479 -39 callgsubr
          endchar
        </CharString>
        <CharString name="onehalf">
          1127 -3 124 -100 -21 894 121 515 -20 hstemhm
          487 161 116 691 591 163 hintmask 10101010
          487 -39 callgsubr
          982 -1404 rmoveto
          33 -86 rlineto
          -44 callsubr
          hintmask 01010100
          -705 -83 rmoveto
          -17 callsubr
        </CharString>
        <CharString name="onequarter">
          1127 21 -21 227 116 1187 -20 hstemhm
          487 161 115 691 460 156 hintmask 01010100
          487 -39 callgsubr
          846 -1188 rmoveto
          41 -72 rlineto
          -55 callsubr
          hintmask 10101000
          -1044 -1131 rmoveto
          -17 callsubr
        </CharString>
        <CharString name="onesuperior">
          55 callgsubr
        </CharString>
        <CharString name="ordfeminine">
          -269 678 112 338 94 257 118 hstem
          139 148 430 151 vstem
          445 678 rmoveto
          108 118 48 46 55 hvcurveto
          -31 vlineto
          -59 32 3 56 vhcurveto
          54 619 hlineto
          226 -130 67 -203 -155 -180 -76 -35 -37 vhcurveto
          43 -93 rlineto
          31 43 145 55 108 hhcurveto
          149 66 -35 -143 hvcurveto
          -79 vlineto
          -108 -172 -12 -45 -119 hvcurveto
          -107 -40 -72 -70 -131 vvcurveto
          -160 127 -86 179 vhcurveto
          27 112 rmoveto
          -115 -70 54 90 89 47 36 61 29 hvcurveto
          36 76 131 4 115 hhcurveto
          -268 vlineto
          -29 -46 -110 -41 -89 hhcurveto
          endchar
        </CharString>
        <CharString name="ordmasculine">
          -268 675 114 696 112 hstem
          114 159 488 158 vstem
          511 675 rmoveto
          200 203 128 327 5 hvcurveto
          280 4 -139 187 -251 hhcurveto
          -193 -221 -123 -326 -5 hvcurveto
          -287 -3 149 -186 251 hhcurveto
          8 114 rmoveto
          -154 -2 -93 141 1 220 1 243 116 92 135 2 152 1 85 -136 -1 -221 -2 -242 -99 -97 -141 -1 rrcurveto
          endchar
        </CharString>
        <CharString name="oslash">
          42 callgsubr
          hstemhm
          103 170 679 170 hintmask 00000000
          hintmask 10101100
          312 -168 rmoveto
          96 -27 rlineto
          hintmask 01101100
          65 193 rlineto
          hintmask 10011100
          -16 callgsubr
          hintmask 10101100
          -61 callsubr
          endchar
        </CharString>
        <CharString name="oslashacute">
          42 callgsubr
          577 -21 hstemhm
          103 170 111 457 111 170 hintmask 00000000
          hintmask 10100101
          312 -168 rmoveto
          96 -27 rlineto
          hintmask 01100101
          65 193 rlineto
          hintmask 10010101
          -16 callgsubr
          hintmask 10100101
          -61 callsubr
          hintmask 00001010
          -43 1198 -49 callsubr
        </CharString>
        <CharString name="otilde">
          -39 callsubr
          207 4 callsubr
          105 170 -67 822 -81 169 hintmask 11000101
          -96 callsubr
          hintmask 00000000
          -332 1305 rmoveto
          hintmask 00101010
          -47 callsubr
          hintmask 00110010
          -72 callgsubr
          hintmask 00101010
          -22 callsubr
        </CharString>
        <CharString name="p">
          35 callsubr
          hstemhm
          187 166 621 170 hintmask 00000000
          hintmask 11101100
          -13 callgsubr
          hintmask 11011100
          22 callgsubr
          hintmask 11101100
          -3 callgsubr
          hintmask 11011100
          -123 -75 25 32 -37 hvcurveto
          endchar
        </CharString>
        <CharString name="paragraph">
          18 21 -21 1579 132 hstem
          532 140 282 140 vstem
          532 hmoveto
          140 1586 hlineto
          2 28 236 -9 18 hhcurveto
          -1579 140 1689 vlineto
          3 -115 -236 19 -94 hhcurveto
          -371 -187 -172 -262 -309 144 -136 297 hvcurveto
          endchar
        </CharString>
        <CharString name="parenleft">
          -453 1696 -21 hstem
          142 163 vstem
          598 -327 rmoveto
          115 57 -93 67 -328 309 13 618 rlinecurve
          12 574 319 321 77 56 -115 57 rcurveline
          -92 -51 -364 -382 -575 vvcurveto
          -673 369 -323 87 -55 vhcurveto
          endchar
        </CharString>
        <CharString name="parenright">
          -453 -269 21 hstem
          543 163 vstem
          250 1754 rmoveto
          -115 -57 93 -67 328 -309 -13 -618 rlinecurve
          -12 -574 -319 -321 -77 -56 115 -57 rcurveline
          92 51 364 382 575 vvcurveto
          673 -369 323 -87 55 vhcurveto
          endchar
        </CharString>
        <CharString name="partialdiff">
          65 -29 123 832 117 516 125 hstem
          164 161 738 157 vstem
          164 437 rmoveto
          -284 16 205 -182 274 hhcurveto
          445 124 446 444 -8 hvcurveto
          409 -8 -167 414 -490 hhcurveto
          -120 -157 -33 -69 -93 hvcurveto
          56 -96 rlineto
          40 59 114 33 110 hhcurveto
          365 138 -257 -308 29 hvcurveto
          35 -93 -93 14 -104 hhcurveto
          -343 -282 -225 -381 23 hvcurveto
          161 26 rmoveto
          312 -18 236 151 210 hhcurveto
          116 100 -13 -49 94 hvcurveto
          -48 vlineto
          -273 -47 -447 -343 -2 vhcurveto
          -225 -1 -110 148 -13 222 rrcurveto
          endchar
        </CharString>
        <CharString name="percent">
          643 -15 callgsubr
          -30 callsubr
          hintmask 1110111111000000
          567 hmoveto
          -64 callsubr
          hintmask 1101111111000000
          -56 callsubr
        </CharString>
        <CharString name="period">
          -700 5 -21 hstem
          184 233 vstem
          184 108 rmoveto
          -74 callsubr
          endchar
        </CharString>
        <CharString name="periodcentered">
          -709 628 -21 hstem
          179 233 vstem
          179 731 rmoveto
          -74 callsubr
          endchar
        </CharString>
        <CharString name="perthousand">
          1466 -15 callgsubr
          103 150 422 149 hintmask 0101000000110000
          1961 452 rmoveto
          -215 128 -186 218 5 vhcurveto
          196 5 179 140 260 vvcurveto
          223 -105 184 -240 -7 vhcurveto
          -197 -6 -179 -142 -261 vvcurveto
          150 6 rmoveto
          180 86 110 130 2 vhcurveto
          136 2 70 -123 -173 vvcurveto
          -181 -87 -106 -129 -1 vhcurveto
          -130 -1 -76 128 163 vvcurveto
          -30 callsubr
          -1544 -458 rmoveto
          -64 callsubr
          hintmask 1110111111000000
          -56 callsubr
        </CharString>
        <CharString name="peseta">
          59 47 callgsubr
          300 113 349 31 callgsubr
          hintmask 00000000
          hintmask 11110100
          36 callgsubr
          318 3 209 149 37 273 rrcurveto
          174 113 -168 hlineto
          340 -8 -201 131 -317 hhcurveto
          hintmask 11101100
          13 callsubr
          -457 -195 -113 195 hlineto
          169 113 rmoveto
          hintmask 11110100
          333 vlineto
          72 11 90 2 79 3 265 7 135 -105 7 -251 rrcurveto
          -648 -401 rmoveto
          288 642 vlineto
          -35 -220 -167 -77 -203 50 callgsubr
        </CharString>
        <CharString name="pi">
          266 -24 131 892 140 hstem
          941 152 vstem
          199 70 rmoveto
          103 -94 61 16 47 24 39 36 rlinecurve
          91 83 56 64 12 229 32 572 rcurveline
          351 -1 -50 -750 rlineto
          -170 -10 58 -103 144 hhcurveto
          163 123 140 123 20 hvcurveto
          -83 36 rlineto
          -71 -27 -71 -97 -78 hhcurveto
          -63 -28 58 86 4 hvcurveto
          35 748 rlineto
          46 hlineto
          174 83 68 148 13 hvcurveto
          -110 hlineto
          -57 -23 -50 -18 -82 hhcurveto
          -723 hlineto
          -137 -95 -33 -81 -55 hvcurveto
          -22 -34 -18 -54 -23 vvcurveto
          86 -39 rlineto
          68 22 80 56 112 hhcurveto
          71 hlineto
          -37 -513 -12 -161 -11 -105 -119 -90 rlinecurve
          -53 -38 -51 -19 -18 -4 rrcurveto
          endchar
        </CharString>
        <CharString name="plus">
          92 706 134 hstem
          627 136 vstem
          627 288 -40 callgsubr
        </CharString>
        <CharString name="plusminus">
          92 0 126 580 134 hstemhm
          251 890 -514 136 hintmask 10100000
          251 hmoveto
          890 126 -890 hlineto
          hintmask 01010000
          376 162 -40 callgsubr
        </CharString>
        <CharString name="product">
          328 1396 126 hstem
          339 170 611 170 vstem
          339 -171 rmoveto
          170 1566 611 -1566 170 1567 209 126 -1369 -126 209 hlineto
          endchar
        </CharString>
        <CharString name="q">
          -63 -485 -21 490 131 919 122 -12 -20 hstemhm
          102 171 620 -10 callsubr
          hintmask 11101100
          102 533 rmoveto
          -386 217 -163 233 180 106 81 55 59 vhcurveto
          -4 -259 rlineto
          -367 167 vlineto
          hintmask 11011100
          1650 vlineto
          hintmask 11101100
          -145 -28 rlineto
          -2 vlineto
          21 -55 -87 21 -99 hhcurveto
          -344 -228 -259 -364 hvcurveto
          495 -418 rmoveto
          -204 -124 144 297 4 hvcurveto
          304 3 164 174 218 hhcurveto
          123 76 -25 -31 36 hvcurveto
          -749 vlineto
          -48 -56 -109 -66 -131 hhcurveto
          endchar
        </CharString>
        <CharString name="question">
          -254 5 -21 1709 -21 24 141 hstemhm
          295 162 -68 228 150 165 hintmask 00000000
          hintmask 10110100
          387 465 rmoveto
          127 1 -31 92 -34 90 8 94 rlinecurve
          11 191 422 38 36 310 rrcurveto
          284 42 -164 272 -461 hhcurveto
          -91 -99 -26 -16 -19 hvcurveto
          hintmask 11001100
          -123 vlineto
          hintmask 10110100
          12 29 64 12 90 hhcurveto
          318 173 -159 -265 -49 hvcurveto
          -24 -221 -446 -69 6 -223 2 -115 50 -126 40 -53 rrcurveto
          hintmask 10101100
          2 -360 rmoveto
          -73 2 50 -48 56 hhcurveto
          64 58 57 81 -2 hvcurveto
          66 -2 -36 54 -71 hhcurveto
          -61 -60 -61 -76 2 hvcurveto
          endchar
        </CharString>
        <CharString name="questiondown">
          -254 -313 141 3 21 1667 21 hstemhm
          114 165 150 228 -68 162 hintmask 00000000
          hintmask 10110100
          659 1059 rmoveto
          -127 -1 31 -92 34 -90 -8 -94 rlinecurve
          -11 -191 -422 -38 -36 -310 rrcurveto
          -284 -42 164 -272 461 hhcurveto
          91 99 26 16 19 hvcurveto
          hintmask 01111000
          123 vlineto
          hintmask 10110100
          -12 -29 -64 -12 -90 hhcurveto
          -318 -173 159 265 49 hvcurveto
          24 221 446 69 -6 223 -2 115 -50 126 -40 53 rrcurveto
          hintmask 10111000
          -2 360 rmoveto
          73 -2 -50 48 -56 hhcurveto
          -64 -58 -57 -81 2 hvcurveto
          -66 2 36 -54 71 hhcurveto
          61 60 61 76 -2 hvcurveto
          endchar
        </CharString>
        <CharString name="quotedbl">
          -87 966 719 hstemhm
          286 158 324 158 hintmask 11000000
          299 966 23 callgsubr
          hintmask 10100000
          507 -719 23 callgsubr
          endchar
        </CharString>
        <CharString name="quotedblbase">
          -320 -517 774 hstemhm
          233 157 329 157 hintmask 11000000
          195 -517 -84 callgsubr
          hintmask 10100000
          558 -47 -84 callgsubr
          endchar
        </CharString>
        <CharString name="quotedblleft">
          -320 1686 -21 hstemhm
          101 157 331 157 hintmask 11000000
          294 963 rmoveto
          -54 callgsubr
          hintmask 10100000
          488 hmoveto
          -54 callgsubr
          endchar
        </CharString>
        <CharString name="quotedblright">
          -320 963 774 hstemhm
          233 157 331 157 hintmask 11000000
          195 963 -84 callgsubr
          hintmask 10100000
          560 -47 -84 callgsubr
          endchar
        </CharString>
        <CharString name="quoteleft">
          -803 1686 -21 hstem
          101 157 vstem
          294 963 rmoveto
          -54 callgsubr
          endchar
        </CharString>
        <CharString name="quotereversed">
          -803 963 774 hstem
          96 157 vstem
          311 963 rmoveto
          72 47 rlineto
          25 vlineto
          -59 47 -71 137 143 vvcurveto
          100 56 105 66 28 vhcurveto
          46 vlineto
          -86 96 rlineto
          -119 -41 -74 -144 -159 vvcurveto
          -219 131 -156 84 -55 vhcurveto
          endchar
        </CharString>
        <CharString name="quoteright">
          -803 963 774 hstem
          233 157 vstem
          195 963 -84 callgsubr
          endchar
        </CharString>
        <CharString name="quotesinglbase">
          -803 -536 774 hstem
          233 157 vstem
          195 -536 -84 callgsubr
          endchar
        </CharString>
        <CharString name="quotesingle">
          -570 966 719 hstem
          286 158 vstem
          299 966 23 callgsubr
          endchar
        </CharString>
        <CharString name="r">
          38 callgsubr
          -17 -20 24 -20 hstemhm
          185 -10 callsubr
          hintmask 11001000
          185 hmoveto
          -36 callgsubr
          hintmask 10011000
          157 vlineto
          hintmask 11001000
          -23 callgsubr
          hintmask 10101000
          21 callsubr
        </CharString>
        <CharString name="racute">
          38 callgsubr
          -13 -20 576 -21 hstemhm
          185 167 17 457 hintmask 00010100
          455 1315 -101 callsubr
          hintmask 00000000
          -184 -1383 rmoveto
          -36 callgsubr
          hintmask 11001000
          157 vlineto
          hintmask 10101000
          -23 callgsubr
          hintmask 11001000
          21 callsubr
        </CharString>
        <CharString name="radical">
          301 -354 2224 hstem
          97 1474 vstem
          169 478 rmoveto
          144 88 407 -920 rlineto
          137 hlineto
          714 2224 rlineto
          -165 hlineto
          -624 -2004 -351 848 rlineto
          -146 hlineto
          -188 -115 rlineto
          endchar
        </CharString>
        <CharString name="rcaron">
          38 callgsubr
          -13 -20 566 11 callsubr
          121 737 -673 -10 callsubr
          hintmask 00001100
          418 1322 -2 callgsubr
          hintmask 00010100
          -70 callgsubr
          hintmask 00001100
          -45 callgsubr
          hintmask 00000000
          64 -1669 rmoveto
          -36 callgsubr
          hintmask 11000010
          157 vlineto
          hintmask 10100010
          -23 callgsubr
          hintmask 11000010
          21 callsubr
        </CharString>
        <CharString name="rcommaaccent">
          -475 -8 callsubr
          1009 147 -13 -20 hstemhm
          185 167 -115 143 hintmask 10000100
          165 -103 callgsubr
          hintmask 00000000
          -100 97 rmoveto
          -36 callgsubr
          hintmask 01101000
          157 vlineto
          hintmask 01011000
          -23 callgsubr
          hintmask 01101000
          21 callsubr
        </CharString>
        <CharString name="registered">
          832 95 99 669 98 388 101 284 97 hstem
          204 109 439 135 406 140 386 -49 callgsubr
          439 -483 rmoveto
          135 381 172 hlineto
          106 -32 46 -156 47 -87 20 -41 17 -33 25 -31 156 -1 rcurveline
          -47 69 -18 24 -18 33 -51 87 -41 132 -88 56 rrcurveto
          162 37 58 115 146 vvcurveto
          149 -108 120 -249 vhcurveto
          -85 -82 -6 -83 hhcurveto
          -74 hlineto
          135 -480 rmoveto
          375 vlineto
          67 7 38 2 47 1 rrcurveto
          187 4 67 -73 -116 vvcurveto
          -141 -82 -60 -150 -2 vhcurveto
          -25 -127 1 2 -22 hvcurveto
          endchar
        </CharString>
        <CharString name="ring">
          -588 1332 97 334 95 hstem
          47 20 callgsubr
          vstem
          353 1332 -74 callgsubr
          endchar
        </CharString>
        <CharString name="ring.cap">
          -588 1459 97 321 95 hstem
          47 20 callgsubr
          vstem
          353 1459 -75 callgsubr
        </CharString>
        <CharString name="s">
          -9 callgsubr
          hstem
          132 155 440 156 vstem
          123 66 -104 callsubr
          endchar
        </CharString>
        <CharString name="sacute">
          -9 callgsubr
          543 -21 hstemhm
          132 155 106 457 -123 156 hintmask 00101000
          479 1315 -101 callsubr
          hintmask 11010100
          -270 -1317 -104 callsubr
          endchar
        </CharString>
        <CharString name="scaron">
          -9 callgsubr
          45 callgsubr
          132 155 -142 737 -155 156 hintmask 00000000
          hintmask 00010100
          442 1322 -2 callgsubr
          hintmask 00100100
          -70 callgsubr
          hintmask 00010100
          -45 callgsubr
          hintmask 11001010
          -22 -1603 -104 callsubr
          endchar
        </CharString>
        <CharString name="scircumflex">
          -9 callgsubr
          146 390 hstemhm
          132 155 -144 737 -153 156 hintmask 00101000
          240 1302 -92 callgsubr
          hintmask 11010100
          -20 -1279 -104 callsubr
          endchar
        </CharString>
        <CharString name="second">
          -253 1190 600 hstemhm
          197 281 123 281 hintmask 11000000
          197 1190 18 callsubr
          hintmask 10100000
          298 -600 18 callsubr
          endchar
        </CharString>
        <CharString name="section">
          57 -193 126 1614 126 hstemhm
          218 153 -141 153 601 152 -144 152 hintmask 00000000
          hintmask 11010100
          227 -100 rmoveto
          -43 64 161 -50 196 hhcurveto
          hintmask 11011000
          217 271 74 259 94 -43 68 -65 54 hvcurveto
          hintmask 11010100
          69 74 47 95 107 439 -761 -44 333 vvcurveto
          140 152 46 161 1 vhcurveto
          179 1 106 -44 46 -31 33 127 rcurveline
          34 -57 -119 39 -185 hhcurveto
          -207 -262 -68 -263 -115 51 -79 77 -62 hvcurveto
          hintmask 11101000
          -81 -77 -59 -106 -120 -410 766 43 -291 vvcurveto
          -141 -163 -50 -170 -1 vhcurveto
          -192 -1 -145 56 -54 39 rrcurveto
          111 783 rmoveto
          77 40 84 35 57 vhcurveto
          hintmask 11010100
          226 -127 320 -53 -243 vvcurveto
          -60 -26 -71 -31 -57 vhcurveto
          hintmask 11101000
          -227 121 -337 44 228 vvcurveto
          endchar
        </CharString>
        <CharString name="semicolon">
          -700 -478 -21 1328 -21 hstemhm
          184 233 -121 158 hintmask 10010000
          190 -26 callsubr
          hintmask 01100000
          -6 773 rmoveto
          -74 callsubr
          endchar
        </CharString>
        <CharString name="seven">
          -65 1134 136 hstem
          150 975 vstem
          377 -278 rmoveto
          179 -52 569 1555 -37 46 rlineto
          -937 hlineto
          -1 -136 791 -1 -124 -330 -286 -755 -154 -327 rlinecurve
          endchar
        </CharString>
        <CharString name="six">
          76 -16 117 754 130 hstem
          168 181 687 169 vstem
          168 570 rmoveto
          -316 188 -270 324 350 175 277 285 229 -146 210 -261 -134 -108 -50 -40 -41 vhcurveto
          47 -100 rlineto
          25 31 74 35 97 hhcurveto
          138 134 -91 -252 -194 -105 -217 -230 -268 -90 257 283 6 hvcurveto
          7 345 272 368 410 106 -46 108 rcurveline
          -383 -75 -441 -389 -534 vvcurveto
          endchar
        </CharString>
        <CharString name="slash">
          39 callsubr
          66 721 vstem
          66 -363 rmoveto
          150 hlineto
          571 1962 rlineto
          -151 hlineto
          endchar
        </CharString>
        <CharString name="space">
          -646 endchar
        </CharString>
        <CharString name="sterling">
          245 -24 120 -85 -21 774 116 531 37 callgsubr
          hintmask 01111100
          36 callsubr
          hintmask 10111100
          -29 callgsubr
          62 64 46 144 -2 282 rrcurveto
          105 384 116 -385 155 vlineto
          -18 callgsubr
          -177 -183 -116 183 -299 vlineto
          -144 -68 -88 -21 -39 vhcurveto
          hintmask 01111100
          -146 -8 -66 -60 -72 vvcurveto
          endchar
        </CharString>
        <CharString name="summation">
          207 -170 119 1447 126 -63 63 hstemhm
          200 1074 hintmask 00000000
          hintmask 11010000
          200 -128 rmoveto
          20 -42 1054 -1 rlineto
          120 -841 vlineto
          515 735 -527 712 rlineto
          840 126 -1037 hlineto
          hintmask 10110000
          -24 -63 573 -779 rlineto
          endchar
        </CharString>
        <CharString name="t">
          -452 -16 46 callsubr
          hstem
          240 166 vstem
          240 270 -82 callgsubr
          endchar
        </CharString>
        <CharString name="tbar">
          -452 -16 134 499 125 272 126 hstem
          240 166 vstem
          240 270 rmoveto
          -244 120 -42 140 104 139 47 47 58 vhcurveto
          -29 97 rlineto
          -1 callsubr
          -113 -39 20 226 hvcurveto
          253 353 125 -353 272 354 126 -354 260 -100 vlineto
          -21 -67 -16 -121 -13 -34 -18 -48 -83 -3 -74 -22 rrcurveto
          -91 159 -272 -160 -125 160 vlineto
          endchar
        </CharString>
        <CharString name="tcaron">
          -306 -16 46 callsubr
          56 648 hstemhm
          240 166 379 150 hintmask 11010000
          240 270 -82 callgsubr
          hintmask 00101000
          576 182 -77 callsubr
        </CharString>
        <CharString name="thorn">
          -53 -486 -21 490 123 919 131 hstem
          188 167 620 170 vstem
          345 10 rmoveto
          -15 67 81 -12 78 hhcurveto
          342 232 256 373 365 -201 179 -249 -181 -107 -83 -57 -59 hvcurveto
          7 170 rlineto
          475 -167 -2168 167 356 vlineto
          306 vmoveto
          754 vlineto
          51 56 112 65 127 hhcurveto
          214 113 -153 -282 -2 hvcurveto
          -325 -3 -181 -159 -202 hhcurveto
          -105 -91 20 29 -38 hvcurveto
          endchar
        </CharString>
        <CharString name="three">
          -165 -337 119 690 84 596 132 hstemhm
          780 165 -92 170 hintmask 00000000
          hintmask 11101000
          148 -204 rmoveto
          1 -115 rlineto
          -12 68 65 -6 62 hhcurveto
          418 261 255 274 179 -133 168 -238 17 hvcurveto
          hintmask 11110000
          162 72 131 136 176 vvcurveto
          231 -194 113 -224 -183 -164 -93 -64 -75 vhcurveto
          66 -96 rlineto
          48 62 116 73 164 hhcurveto
          154 115 -70 -162 -2 hvcurveto
          -1 -123 -95 -120 -182 -67 -57 -22 -57 -17 -71 -14 36 -116 rcurveline
          111 27 rlineto
          hintmask 11101000
          269 31 120 -139 -180 vvcurveto
          -202 -208 -193 -332 -3 vhcurveto
          -52 -1 -57 5 -56 10 rrcurveto
          endchar
        </CharString>
        <CharString name="three.numr">
          -107 588 114 424 64 398 111 hstemhm
          764 153 -90 161 hintmask 00000000
          hintmask 11101000
          308 0 callsubr
          hintmask 11110000
          -42 callsubr
          hintmask 11101000
          8 callsubr
          endchar
        </CharString>
        <CharString name="threequarters">
          1127 21 -21 227 116 245 114 424 64 340 -20 78 111 hstemhm
          616 153 -90 161 -77 691 460 156 -30 callsubr
          hintmask 0111010101000000
          160 0 callsubr
          hintmask 0111011001000000
          -42 callsubr
          hintmask 0111010101000000
          8 callsubr
          1183 -437 rmoveto
          41 -72 rlineto
          -55 callsubr
          hintmask 1000100010000000
          -1044 -1131 rmoveto
          -17 callsubr
        </CharString>
        <CharString name="threesuperior">
          55 callgsubr
        </CharString>
        <CharString name="tilde">
          -384 1363 4 callsubr
          48 822 hintmask 00000000
          hintmask 10110000
          114 1408 rmoveto
          hintmask 11010000
          -47 callsubr
          hintmask 10110000
          -72 callgsubr
          hintmask 11010000
          -22 callsubr
        </CharString>
        <CharString name="tilde.cap">
          -384 1667 127 27 123 hstemhm
          48 822 hintmask 00000000
          hintmask 10100000
          114 1713 rmoveto
          hintmask 11100000
          -47 callgsubr
          hintmask 10100000
          -73 callsubr
          hintmask 11100000
          -10 callgsubr
          endchar
        </CharString>
        <CharString name="trademark">
          917 1429 117 -89 89 hstemhm
          458 140 hintmask 00000000
          hintmask 10100000
          1033 767 rmoveto
          130 hlineto
          23 538 rlineto
          hintmask 01100000
          3 152 62 -153 223 -542 rlineto
          91 hlineto
          211 558 48 136 9 -169 35 -520 rlineto
          136 hlineto
          hintmask 10100000
          -67 779 rlineto
          -208 hlineto
          -177 -475 -33 -138 -40 139 -188 474 rlineto
          -221 hlineto
          -612 -779 rmoveto
          140 663 hlineto
          276 -2 rlineto
          118 -685 -118 vlineto
          269 2 rlineto
          endchar
        </CharString>
        <CharString name="two">
          -35 0 132 1021 134 hstem
          878 170 vstem
          156 86 rmoveto
          25 -86 rlineto
          939 135 hlineto
          -688 -5 rlineto
          349 211 267 285 278 vvcurveto
          208 -115 175 -314 -208 -160 -105 -88 -73 vhcurveto
          71 -95 rlineto
          87 79 140 67 133 hhcurveto
          181 96 -100 -158 -293 -371 -309 -351 -207 hvcurveto
          endchar
        </CharString>
        <CharString name="two.numr">
          -107 679 124 773 121 hstem
          775 163 vstem
          231 679 rmoveto
          -44 callsubr
          endchar
        </CharString>
        <CharString name="twosuperior">
          55 callgsubr
        </CharString>
        <CharString name="u">
          -61 callgsubr
          -4 callgsubr
          548 -10 callsubr
          hintmask 10111000
          183 471 -79 callsubr
          hintmask 01111000
          -76 callsubr
          hintmask 10111000
          -87 callsubr
          endchar
        </CharString>
        <CharString name="uacute">
          -61 callgsubr
          579 -21 -4 callgsubr
          172 457 -81 167 hintmask 00010100
          607 1315 -101 callsubr
          hintmask 00000000
          -338 -912 -79 callsubr
          hintmask 10101010
          -76 callsubr
          hintmask 01101010
          -87 callsubr
          endchar
        </CharString>
        <CharString name="ubreve">
          -61 callgsubr
          215 130 -4 callgsubr
          -45 33 callsubr
          -83 -10 callsubr
          hintmask 10101001
          183 471 -79 callsubr
          hintmask 01101001
          -76 callsubr
          hintmask 10101001
          -87 callsubr
          hintmask 00010110
          459 195 -92 callsubr
        </CharString>
        <CharString name="ucircumflex">
          -61 callgsubr
          182 390 -4 callgsubr
          -77 737 -112 167 hintmask 00010100
          369 1302 -92 callgsubr
          hintmask 00000000
          -89 -874 -79 callsubr
          hintmask 10101010
          -76 callsubr
          hintmask 01101010
          -87 callsubr
          endchar
        </CharString>
        <CharString name="udieresis">
          -61 callgsubr
          288 225 -4 callgsubr
          -40 34 callgsubr
          -80 -10 callsubr
          hintmask 00010110
          860 1408 -88 callgsubr
          hintmask 00000000
          -226 -937 -79 callsubr
          hintmask 10101001
          -76 callsubr
          hintmask 01101001
          -87 callsubr
          endchar
        </CharString>
        <CharString name="ugrave">
          -61 callgsubr
          579 -21 -4 callgsubr
          -57 457 148 -10 callsubr
          hintmask 10101010
          183 471 -79 callsubr
          hintmask 01101010
          -76 callsubr
          hintmask 10101010
          -87 callsubr
          hintmask 00010100
          481 175 -84 callsubr
        </CharString>
        <CharString name="uhungarumlaut">
          -61 callgsubr
          234 463 -4 callgsubr
          -56 883 -279 -10 callsubr
          hintmask 10101010
          183 471 -79 callsubr
          hintmask 01101010
          -76 callsubr
          hintmask 10101010
          -87 callsubr
          hintmask 00010100
          189 214 -64 callgsubr
          endchar
        </CharString>
        <CharString name="umacron">
          -61 callgsubr
          332 124 -4 callgsubr
          23 543 -18 -10 callsubr
          hintmask 10101010
          183 471 -79 callsubr
          hintmask 01101010
          -76 callsubr
          hintmask 10101010
          -87 callsubr
          hintmask 00010100
          189 312 -57 callsubr
          endchar
        </CharString>
        <CharString name="underscore">
          391 -402 105 hstem
          -40 1772 vstem
          -40 -297 rmoveto
          -105 1772 105 vlineto
          endchar
        </CharString>
        <CharString name="uni015E">
          -147 -464 119 330 134 1286 133 hstem
          140 162 244 124 232 166 vstem
          136 74 rmoveto
          52 -35 160 -49 187 -5 11 -38 6 -51 -6 -76 -63 callsubr
          5 91 -11 75 -25 53 rrcurveto
          256 20 173 132 246 vvcurveto
          241 -226 115 -203 97 vhcurveto
          -216 104 -121 71 171 vvcurveto
          152 -1 167 69 162 hhcurveto
          157 95 -34 -48 74 hvcurveto
          35 133 rlineto
          36 -54 -114 46 -192 hhcurveto
          -231 -260 -96 -280 -225 200 -141 198 -90 hvcurveto
          213 -97 151 -69 -174 vvcurveto
          -168 -134 -79 -211 -144 -155 44 50 -81 vhcurveto
          endchar
        </CharString>
        <CharString name="uni015F">
          -317 -464 119 330 123 924 124 hstem
          132 155 167 124 149 156 vstem
          123 66 rmoveto
          59 -39 129 -35 132 -7 11 -38 6 -51 -6 -76 -63 callsubr
          5 91 -11 76 -25 52 rrcurveto
          207 18 129 110 182 vvcurveto
          197 -197 90 -150 59 vhcurveto
          -148 57 -103 57 2 120 rrcurveto
          90 1 85 65 163 hhcurveto
          112 108 -32 -30 39 hvcurveto
          28 127 -40 23 -120 37 -133 -1 rlinecurve
          -214 -1 -180 -91 -4 -196 -2 -186 150 -98 175 -71 rrcurveto
          136 -55 136 -53 -120 vvcurveto
          -118 -104 -59 -146 vhcurveto
          -138 2 -147 52 -43 30 rrcurveto
          endchar
        </CharString>
        <CharString name="uni0162">
          -22 -464 119 366 44 callsubr
          hstemhm
          62 303 188 171 -126 124 hintmask 00000000
          hintmask 11111000
          365 -327 rmoveto
          -32 callgsubr
          hintmask 11110100
          116 103 63 169 10 hvcurveto
          5 99 -13 81 -30 52 rrcurveto
          hintmask 11111000
          40 1391 498 131 -1160 -131 491 -1391 29 hlineto
          14 -39 9 -54 -7 -87 rrcurveto
          -118 -6 -57 -47 -80 hhcurveto
          -37 -36 7 11 -17 hvcurveto
          endchar
        </CharString>
        <CharString name="uni0163">
          -452 -464 119 329 46 callsubr
          hstemhm
          240 166 13 121 hintmask 00000000
          hintmask 11110000
          240 270 rmoveto
          -184 68 -69 94 -23 vhcurveto
          hintmask 11111000
          13 -39 8 -52 -7 -83 -63 callsubr
          4 89 -10 75 -23 52 102 3 132 45 56 46 -29 97 rcurveline
          -1 callsubr
          hintmask 11110000
          -113 -39 20 226 hvcurveto
          650 354 126 -354 260 -100 vlineto
          -21 -67 -16 -121 -13 -34 -18 -48 -83 -3 -74 -22 rrcurveto
          -91 159 vlineto
          endchar
        </CharString>
        <CharString name="uni01C4">
          -86 callsubr
          hintmask 0101000001000000
          -299 392 -71 callgsubr
          -30 callsubr
          -71 callsubr
          endchar
        </CharString>
        <CharString name="uni01C5">
          10 callgsubr
          188 -21 -48 callsubr
          833 176 188 890 -794 737 -30 callsubr
          hintmask 0010010011000000
          0 callgsubr
          -14 callsubr
          hintmask 1000010011000000
          -95 callgsubr
          hintmask 1000001011000000
          -54 callsubr
          hintmask 1000010011000000
          -90 callgsubr
          hintmask 1000001011000000
          -32 callsubr
          -30 callsubr
          1197 -63 -57 callgsubr
          hintmask 0101000000100000
          18 callgsubr
          hintmask 0100100000100000
          -51 callgsubr
          hintmask 0101000000100000
          -203 408 -2 callgsubr
          -30 callsubr
          -70 callgsubr
          hintmask 0000000100010000
          -45 callgsubr
          endchar
        </CharString>
        <CharString name="uni01C6">
          20 callsubr
          550 -21 38 callsubr
          273 890 -807 737 -30 callsubr
          hintmask 1000100110000000
          -58 callsubr
          hintmask 0010100110000000
          -63 callgsubr
          hintmask 1000100110000000
          -94 callgsubr
          -30 callsubr
          735 -50 -57 callgsubr
          hintmask 0101000001000000
          18 callgsubr
          hintmask 0100010001000000
          -51 callgsubr
          hintmask 0101000001000000
          -216 408 -2 callgsubr
          -30 callsubr
          -70 callgsubr
          hintmask 0000001000100000
          -45 callgsubr
          endchar
        </CharString>
        <CharString name="uni01C7">
          459 0 33 callgsubr
          hstemhm
          206 172 981 172 hintmask 11100000
          0 callgsubr
          -42 callgsubr
          hintmask 01010000
          821 -1765 -91 callsubr
          endchar
        </CharString>
        <CharString name="uni01C8">
          327 -14 callgsubr
          494 133 1006 -20 403 -20 hstemhm
          206 172 899 166 hintmask 00101100
          0 callgsubr
          -42 callgsubr
          hintmask 00000000
          1071 -1563 rmoveto
          -53 callsubr
          hintmask 10010010
          -124 vlineto
          hintmask 01010010
          -75 callsubr
          vlineto
          hintmask 10010010
          77 -48 callgsubr
          endchar
        </CharString>
        <CharString name="uni01C9">
          -145 -16 callsubr
          53 callgsubr
          424 166 hintmask 00101000
          214 -20 callsubr
          hintmask 00000000
          591 -1705 rmoveto
          -53 callsubr
          hintmask 10010100
          -124 vlineto
          hintmask 01010100
          -75 callsubr
          vlineto
          hintmask 10010100
          77 -48 callgsubr
          endchar
        </CharString>
        <CharString name="uni01CA">
          946 -69 callsubr
          hstemhm
          57 callsubr
          832 155 498 172 hintmask 11110000
          -58 callgsubr
          hintmask 01001000
          1309 -1765 -91 callsubr
          endchar
        </CharString>
        <CharString name="uni01CB">
          814 -16 callsubr
          403 -20 hstemhm
          57 callsubr
          832 155 416 166 hintmask 00101110
          -58 callgsubr
          hintmask 00000000
          1559 -1563 rmoveto
          -53 callsubr
          hintmask 10010001
          -124 vlineto
          hintmask 01010001
          -75 callsubr
          vlineto
          hintmask 10010001
          77 -48 callgsubr
          endchar
        </CharString>
        <CharString name="uni01CC">
          549 -14 callgsubr
          515 52 callsubr
          -18 -20 15 callsubr
          576 167 396 6 callgsubr
          hintmask 00110110
          193 hmoveto
          -97 callgsubr
          hintmask 00101110
          -24 callgsubr
          hintmask 00000000
          1306 -1180 rmoveto
          -53 callsubr
          hintmask 10001001
          -124 vlineto
          hintmask 01001001
          -75 callsubr
          vlineto
          hintmask 10001001
          77 -48 callgsubr
          endchar
        </CharString>
        <CharString name="uni01CD">
          -44 callgsubr
          142 -21 68 -21 41 callgsubr
          -1015 706 hintmask 11100100
          -102 callgsubr
          hintmask 00000000
          -537 1094 -95 callsubr
          hintmask 00011010
          -41 callsubr
        </CharString>
        <CharString name="uni01CE">
          -62 callsubr
          532 -21 22 -21 15 callgsubr
          -62 737 -149 166 hintmask 11100101
          -107 callgsubr
          hintmask 00000000
          235 1008 -2 callgsubr
          hintmask 00001010
          -70 callgsubr
          hintmask 00010010
          -45 callgsubr
          endchar
        </CharString>
        <CharString name="uni01CF">
          -688 -69 callsubr
          186 -21 hstemhm
          -34 681 -426 171 hintmask 11001000
          10 callsubr
          13 145 -71 callgsubr
          hintmask 00110000
          -71 callsubr
          endchar
        </CharString>
        <CharString name="uni01D0">
          21 -38 callgsubr
          570 11 callsubr
          -76 737 -450 166 hintmask 11000100
          211 hmoveto
          -69 callgsubr
          hintmask 00000000
          10 183 -2 callgsubr
          hintmask 00011000
          -70 callgsubr
          hintmask 00101000
          -45 callgsubr
          endchar
        </CharString>
        <CharString name="uni01D1">
          -60 callsubr
          150 34 callsubr
          186 681 141 171 hintmask 11010100
          -83 callsubr
          hintmask 00000000
          -49 1553 -31 callsubr
        </CharString>
        <CharString name="uni01D2">
          -39 callsubr
          45 callgsubr
          105 170 -24 737 -39 169 hintmask 11001010
          -96 callsubr
          hintmask 00000000
          -58 1219 -2 callgsubr
          hintmask 00010100
          -70 callgsubr
          hintmask 00100100
          -45 callgsubr
          endchar
        </CharString>
        <CharString name="uni01D3">
          -55 callgsubr
          185 45 callsubr
          68 681 48 168 hintmask 00000000
          hintmask 10101010
          171 644 -82 callsubr
          hintmask 11001010
          -93 callsubr
          hintmask 10101010
          -36 callsubr
          hintmask 00000000
          504 144 -71 callgsubr
          hintmask 00010100
          -71 callsubr
          endchar
        </CharString>
        <CharString name="uni01D4">
          -61 callgsubr
          569 -21 22 -21 -4 callgsubr
          -75 737 -114 -10 callsubr
          hintmask 10100101
          183 471 -79 callsubr
          hintmask 01100101
          -76 callsubr
          hintmask 10100101
          -87 callsubr
          hintmask 00000000
          388 182 -2 callgsubr
          hintmask 00001010
          -70 callgsubr
          hintmask 00010010
          -45 callgsubr
          endchar
        </CharString>
        <CharString name="uni01F1">
          -86 callsubr
          endchar
        </CharString>
        <CharString name="uni01F2">
          10 callgsubr
          hstemhm
          206 169 833 176 188 890 -30 callsubr
          hintmask 0010010110000000
          0 callgsubr
          -14 callsubr
          hintmask 1000010110000000
          -95 callgsubr
          hintmask 1000001110000000
          -54 callsubr
          hintmask 1000010110000000
          -90 callgsubr
          hintmask 1000001110000000
          -32 callsubr
          -30 callsubr
          1197 -63 -57 callgsubr
          hintmask 0101000001000000
          18 callgsubr
          hintmask 0100100001000000
          -51 callgsubr
          endchar
        </CharString>
        <CharString name="uni01F3">
          20 callsubr
          38 callsubr
          273 890 -30 callsubr
          hintmask 1000101100000000
          -58 callsubr
          hintmask 0010101100000000
          -63 callgsubr
          hintmask 1000101100000000
          -94 callgsubr
          -30 callsubr
          735 -50 -57 callgsubr
          hintmask 0101000010000000
          18 callgsubr
          hintmask 0100010010000000
          -51 callgsubr
          endchar
        </CharString>
        <CharString name="uni01F4">
          55 callgsubr
        </CharString>
        <CharString name="uni0218">
          -140 -539 -21 544 135 1286 133 hstemhm
          144 162 248 143 209 166 hintmask 10001000
          482 -103 callgsubr
          hintmask 01110100
          -462 171 -88 callsubr
        </CharString>
        <CharString name="uni0219">
          -317 -539 -21 544 124 924 124 hstemhm
          132 155 176 143 121 156 hintmask 10001000
          391 -103 callgsubr
          hintmask 01110100
          -388 163 -104 callsubr
          endchar
        </CharString>
        <CharString name="uni021A">
          -22 -539 -21 581 44 callsubr
          hstemhm
          553 171 -115 143 hintmask 10001000
          537 -103 callgsubr
          hintmask 01110000
          -104 97 rmoveto
          -34 callgsubr
        </CharString>
        <CharString name="uni021B">
          -452 -539 -21 544 46 callsubr
          hstemhm
          240 166 20 143 hintmask 10001000
          354 -103 callgsubr
          hintmask 01110000
          -234 367 -82 callgsubr
          endchar
        </CharString>
        <CharString name="uni02c9">
          2 callgsubr
        </CharString>
        <CharString name="uni0394">
          -40 callsubr
        </CharString>
        <CharString name="uni03A9">
          49 callgsubr
          198 170 1046 170 vstem
          209 -66 callsubr
        </CharString>
        <CharString name="uni03BC">
          -70 callsubr
        </CharString>
        <CharString name="uni1E02">
          29 callsubr
          209 -21 hstemhm
          206 168 160 227 211 164 -67 172 hintmask 0000010100000000
          640 1691 -91 callgsubr
          -30 callsubr
          -434 -1691 rmoveto
          89 hlineto
          hintmask 0111001001000000
          1 callgsubr
          hintmask 1011001001000000
          7 callgsubr
          hintmask 1011001010000000
          -92 1 rlineto
          168 -675 rmoveto
          hintmask 1010101001000000
          1 callsubr
          hintmask 1011001010000000
          -75 -207 -5 9 -65 hvcurveto
          hintmask 1010101001000000
          -21 callsubr
        </CharString>
        <CharString name="uni1E03">
          -57 -17 1678 -273 242 hstemhm
          184 167 288 230 hintmask 10100000
          -67 callgsubr
          hintmask 01010000
          562 1324 -103 callsubr
          endchar
        </CharString>
        <CharString name="uni1E0A">
          3 callgsubr
          210 -21 -48 callsubr
          226 227 380 176 hintmask 00001010
          707 1691 -91 callgsubr
          hintmask 00000000
          -501 -1691 rmoveto
          -14 callsubr
          hintmask 01100101
          -95 callgsubr
          hintmask 10100101
          -54 callsubr
          hintmask 10010101
          -90 callgsubr
          hintmask 10100101
          -32 callsubr
          endchar
        </CharString>
        <CharString name="uni1E0B">
          -62 14 callsubr
          232 242 hstemhm
          102 171 -13 230 402 -10 callsubr
          hintmask 10101010
          -58 callsubr
          hintmask 01101010
          -63 callgsubr
          hintmask 10101010
          -94 callgsubr
          hintmask 00010100
          -230 1273 -103 callsubr
          endchar
        </CharString>
        <CharString name="uni1E1E">
          42 callsubr
          190 -21 -48 callsubr
          177 227 hintmask 00010100
          658 1691 -91 callgsubr
          hintmask 11101000
          -452 -1691 rmoveto
          21 callgsubr
        </CharString>
        <CharString name="uni1E1F">
          43 callgsubr
          64 242 6 callsubr
          -167 230 hintmask 00010100
          379 1746 -103 callsubr
          hintmask 11101000
          -107 -1746 -97 callsubr
        </CharString>
        <CharString name="uni1E20">
          -46 callgsubr
          205 124 17 callgsubr
          263 543 66 163 hintmask 11101010
          110 750 -104 callgsubr
          hintmask 00010100
          439 993 -57 callsubr
          endchar
        </CharString>
        <CharString name="uni1E21">
          -72 callsubr
          296 124 -51 callsubr
          -11 543 -17 -11 callgsubr
          hintmask 1111001000010000
          121 -194 -85 callgsubr
          hintmask 1111000010100000
          -99 callgsubr
          hintmask 1110100100100000
          -81 callgsubr
          hintmask 1111000010100000
          -50 callgsubr
          hintmask 1111001000010000
          -19 callgsubr
          hintmask 1110100100100000
          -93 callgsubr
          hintmask 1111001000010000
          -96 callgsubr
          hintmask 0000010001000000
          52 1626 -57 callsubr
          endchar
        </CharString>
        <CharString name="uni1E40">
          624 6 -21 35 -21 1398 125 190 -21 hstemhm
          149 1629 -928 227 hintmask 00010100
          956 1691 -91 callgsubr
          hintmask 00000000
          -807 -1692 30 callgsubr
          hintmask 01101000
          25 callsubr
          hintmask 10101000
          -18 callsubr
        </CharString>
        <CharString name="uni1E41">
          677 35 callgsubr
          -18 54 callsubr
          15 callsubr
          527 230 -198 167 540 6 callgsubr
          hintmask 11001011
          -65 callsubr
          hintmask 10101011
          -24 callgsubr
          hintmask 00010100
          801 -48 callgsubr
          endchar
        </CharString>
        <CharString name="uni1E44">
          24 callgsubr
          210 -21 hstemhm
          57 callsubr
          313 227 292 155 hintmask 11010100
          -58 callgsubr
          hintmask 00101000
          575 169 -37 callsubr
        </CharString>
        <CharString name="uni1E45">
          55 callgsubr
        </CharString>
        <CharString name="uni1E56">
          -22 47 callgsubr
          762 122 -14 -20 210 -21 -48 callsubr
          190 227 232 169 hintmask 00001010
          671 1691 -91 callgsubr
          hintmask 00000000
          -465 -1691 rmoveto
          -12 callgsubr
          hintmask 11100101
          13 callsubr
          hlineto
          169 -858 rmoveto
          hintmask 11010101
          -7 callsubr
          hintmask 11100101
          -61 -114 4 8 -62 hvcurveto
          endchar
        </CharString>
        <CharString name="uni1E57">
          35 callsubr
          268 242 hstemhm
          187 166 228 230 163 170 hintmask 00000000
          hintmask 11100101
          -13 callgsubr
          hintmask 11010101
          22 callgsubr
          hintmask 11100101
          -3 callgsubr
          hintmask 11010101
          -123 -75 25 32 -37 hvcurveto
          hintmask 00001010
          335 1225 -103 callsubr
          endchar
        </CharString>
        <CharString name="uni1E60">
          -15 callsubr
          174 46 callgsubr
          203 227 170 166 hintmask 00101000
          611 1691 -91 callgsubr
          hintmask 11010100
          -475 -1617 -88 callsubr
        </CharString>
        <CharString name="uni1E61">
          -9 callgsubr
          232 242 hstemhm
          132 155 112 230 98 156 hintmask 11010100
          123 66 -104 callsubr
          hintmask 00101000
          357 1196 -103 callsubr
          endchar
        </CharString>
        <CharString name="uni1E6A">
          -22 21 44 callsubr
          190 -21 hstemhm
          521 227 -195 171 hintmask 00110000
          627 1691 -91 callgsubr
          hintmask 11001000
          -74 -1691 rmoveto
          -34 callgsubr
        </CharString>
        <CharString name="uni1E6B">
          -452 -16 46 callsubr
          418 242 hstemhm
          237 230 -227 166 hintmask 11001000
          240 270 -82 callgsubr
          hintmask 00110000
          104 544 -103 callsubr
          endchar
        </CharString>
        <CharString name="uni1E8E">
          31 callsubr
          210 -21 hstemhm
          533 227 -212 172 hintmask 11001000
          -83 callgsubr
          hintmask 00110000
          91 1107 -37 callsubr
        </CharString>
        <CharString name="uni1E8F">
          -46 callsubr
          268 242 hstemhm
          56 1011 -600 230 hintmask 00000000
          hintmask 10110100
          120 -356 rmoveto
          hintmask 01110100
          -137 vlineto
          hintmask 10110100
          -100 callgsubr
          hintmask 00001010
          454 1744 -103 callsubr
          endchar
        </CharString>
        <CharString name="uni1E9E">
          161 -23 130 -86 -21 808 97 511 122 hstemhm
          105 169 936 160 hintmask 00000000
          hintmask 01111100
          105 hmoveto
          169 838 hlineto
          381 212 197 285 125 90 -34 -40 54 vhcurveto
          -298 -473 -8 -61 rlineto
          335 141 -85 -259 hvcurveto
          hintmask 10111100
          -219 -144 -138 -183 -127 -124 40 47 -56 vhcurveto
          -62 -131 rlineto
          -47 77 98 -39 214 hhcurveto
          311 156 235 252 310 -204 131 -246 hvcurveto
          315 472 1 69 rlineto
          -102 -95 92 -272 hhcurveto
          -448 -214 -298 -487 hvcurveto
          endchar
        </CharString>
        <CharString name="uni20A6">
          515 21 -21 509 113 286 113 501 -20 hstem
          305 155 906 156 vstem
          305 hmoveto
          155 509 550 hlineto
          356 -509 rlineto
          156 509 235 113 -235 286 266 113 -266 501 -156 -501 -556 hlineto
          -348 501 rlineto
          -157 -501 -229 -113 229 -286 -254 -113 254 hlineto
          153 512 rmoveto
          -10 298 195 -285 9 -13 rlineto
          436 -399 rmoveto
          -199 286 rlineto
          477 -286 hlineto
          -906 hmoveto
          286 271 vlineto
          200 -286 rlineto
          235 -113 rmoveto
          200 hlineto
          13 -312 -180 265 rlineto
          endchar
        </CharString>
        <CharString name="uni20AA">
          312 0 115 1293 114 hstem
          135 158 235 159 259 149 235 148 vstem
          528 424 rmoveto
          -310 123 -114 272 vhcurveto
          555 1 rlineto
          1521 -148 -1407 -330 vlineto
          -216 -97 69 141 hvcurveto
          843 -159 vlineto
          -393 -1168 rmoveto
          158 1408 430 hlineto
          170 53 -99 -141 hvcurveto
          -803 149 734 vlineto
          313 -62 110 -253 vhcurveto
          -645 hlineto
          endchar
        </CharString>
        <CharString name="uni20B1">
          62 47 callgsubr
          209 84 146 84 239 31 callgsubr
          649 169 hintmask 00000000
          hintmask 11111011
          36 callgsubr
          283 1 193 117 68 216 rrcurveto
          194 84 -175 hlineto
          5 31 3 34 35 vvcurveto
          16 -1 15 -1 15 vhcurveto
          169 84 -178 hlineto
          259 -45 -192 102 -279 hhcurveto
          hintmask 11110111
          13 callsubr
          -347 -182 -84 182 -146 -182 -84 182 hlineto
          169 314 rmoveto
          hintmask 11111011
          223 vlineto
          72 11 90 2 79 3 224 5 130 -72 40 -172 rrcurveto
          -635 -230 rmoveto
          146 647 vlineto
          1 -15 1 -16 -16 vvcurveto
          -36 -3 -32 -5 -31 vhcurveto
          -641 -281 rmoveto
          197 617 vlineto
          -61 -152 -147 -54 -172 50 callgsubr
        </CharString>
        <CharString name="uni20B2">
          186 -14 128 -104 -21 633 127 656 131 -3 -20 17 callgsubr
          424 176 -175 158 -142 142 289 163 -30 callsubr
          hintmask 0111010101000000
          712 -11 rmoveto
          -2 -247 rlineto
          hintmask 1011010011000000
          159 hlineto
          1 244 261 13 110 87 80 5 rlinecurve
          659 -479 -122 vlineto
          316 -11 rlineto
          -436 vlineto
          -29 -58 -137 -38 -163 hhcurveto
          -330 -184 276 380 416 234 219 285 212 127 -40 -40 84 hvcurveto
          7 152 rlineto
          hintmask 1011011001000000
          -104 21 -78 30 -167 8 rrcurveto
          226 vlineto
          hintmask 1010110011000000
          -159 -229 hlineto
          -351 -37 -266 -266 -480 vvcurveto
          hintmask 0111010101000000
          -408 221 -310 381 -43 vhcurveto
          endchar
        </CharString>
        <CharString name="uni20B5">
          83 -16 134 -96 -21 1397 138 hstemhm
          107 168 hintmask 00000000
          hintmask 01110000
          630 1 rmoveto
          -32 -355 rlineto
          114 hlineto
          hintmask 10110000
          30 340 rlineto
          -1 19 15 -1 19 hhcurveto
          216 96 50 30 92 hvcurveto
          -2 144 rlineto
          -35 -54 -151 -55 -190 hhcurveto
          -16 -16 -1 3 -16 hvcurveto
          115 1278 187 -8 78 -47 42 -13 rlinecurve
          24 150 -55 13 -88 35 -176 8 rlinecurve
          25 279 rlineto
          -114 hlineto
          -25 -278 rlineto
          -364 -16 -296 -279 -488 vvcurveto
          hintmask 01110000
          -397 200 -284 323 -72 vhcurveto
          12 140 rmoveto
          -235 75 -132 243 307 vvcurveto
          381 195 223 284 27 vhcurveto
          endchar
        </CharString>
        <CharString name="uni20B9">
          83 21 -21 621 111 317 122 237 114 hstem
          951 148 vstem
          170 631 rmoveto
          44 -5 219 -18 229 27 rrcurveto
          -117 145 143 -518 72 hhcurveto
          173 hlineto
          -134 146 -90 417 -195 115 119 50 163 123 35 198 rrcurveto
          201 122 -195 hlineto
          -8 119 -42 71 -45 47 rrcurveto
          322 114 -1156 -114 569 hlineto
          171 -5 36 -105 5 -127 rrcurveto
          -781 -122 774 hlineto
          -189 -37 -176 -128 -192 hhcurveto
          -163 -139 -1 8 -67 hvcurveto
          endchar
        </CharString>
        <CharString name="uni20BA">
          110 0 136 1402 -20 hstem
          377 164 598 161 vstem
          377 hmoveto
          164 hlineto
          424 335 253 421 hvcurveto
          45 -161 vlineto
          -413 -278 -170 -320 vhcurveto
          524 vlineto
          475 207 rlineto
          128 vlineto
          -475 -207 rlineto
          261 vlineto
          491 215 rlineto
          135 vlineto
          -491 -215 rlineto
          354 -164 -426 vlineto
          -293 -128 rlineto
          -135 vlineto
          293 128 rlineto
          -260 vlineto
          -286 -124 rlineto
          -128 vlineto
          286 124 rlineto
          endchar
        </CharString>
        <CharString name="uni2113">
          -87 -29 132 1454 123 hstem
          323 136 473 140 vstem
          40 149 rmoveto
          132 -89 61 49 61 53 60 55 rlinecurve
          -159 43 87 -87 126 hhcurveto
          202 150 285 140 44 hvcurveto
          -138 25 rlineto
          -146 -50 -96 -172 -109 hhcurveto
          -63 -58 68 157 -23 hvcurveto
          337 342 266 419 364 vvcurveto
          133 -56 94 -114 -311 -268 -634 -547 -43 1 -41 4 -38 vhcurveto
          -88 -82 -97 -77 -103 -69 rrcurveto
          419 359 rmoveto
          420 5 227 629 188 hhcurveto
          37 16 -60 -44 -261 -176 -364 -297 -320 hvcurveto
          endchar
        </CharString>
        <CharString name="uni2215">
          39 callsubr
          -34 922 vstem
          -34 -363 rmoveto
          147 hlineto
          775 1962 rlineto
          -147 hlineto
          endchar
        </CharString>
        <CharString name="uni2219">
          -646 572 308 hstem
          183 288 vstem
          319 572 rmoveto
          82 74 70 94 -4 hvcurveto
          78 -1 -47 66 -89 hhcurveto
          -78 -76 -74 -90 3 hvcurveto
          -84 2 62 -60 72 hhcurveto
          endchar
        </CharString>
        <CharString name="uogonek">
          -52 58 callsubr
          383 138 -117 -21 25 -21 1152 -20 -4 callgsubr
          322 165 61 -10 callsubr
          hintmask 11001111
          183 471 -79 callsubr
          hintmask 10101111
          -61 vlineto
          -27 6 -17 11 -10 vhcurveto
          -117 -56 -147 -123 2 -135 rrcurveto
          -136 1 107 -64 9 callsubr
          hintmask 10011111
          -2 120 131 94 87 54 rrcurveto
          12 1152 -167 -911 hlineto
          hintmask 11001111
          -87 callsubr
          endchar
        </CharString>
        <CharString name="uring">
          -61 callgsubr
          212 97 334 95 -4 callgsubr
          -15 20 callgsubr
          -56 167 hintmask 0001101100000000
          640 1332 -74 callgsubr
          -30 callsubr
          -458 -958 -79 callsubr
          hintmask 1010010010000000
          -76 callsubr
          hintmask 0110010010000000
          -87 callsubr
          endchar
        </CharString>
        <CharString name="utilde">
          -61 callgsubr
          243 4 callsubr
          183 166 -118 822 -156 167 -30 callsubr
          hintmask 1010001010000000
          183 471 -79 callsubr
          hintmask 0110001010000000
          -76 callsubr
          hintmask 1010001010000000
          -87 callsubr
          -30 callsubr
          114 268 -67 callsubr
        </CharString>
        <CharString name="v">
          -187 3 -21 1158 -20 hstem
          37 1040 vstem
          493 -18 rmoveto
          142 hlineto
          442 1158 58 callgsubr
          -249 -708 -84 -278 -90 278 -259 708 rlineto
          -180 hlineto
          endchar
        </CharString>
        <CharString name="w">
          57 callgsubr
          53 callsubr
          hintmask 00000000
          hintmask 10110000
          398 -18 14 callgsubr
          hintmask 11010000
          -90 callsubr
          endchar
        </CharString>
        <CharString name="wacute">
          40 callgsubr
          587 -21 53 callsubr
          -893 457 hintmask 00101000
          789 1323 -101 callsubr
          hintmask 00000000
          -305 -1409 14 callgsubr
          hintmask 11010000
          -90 callsubr
          endchar
        </CharString>
        <CharString name="wcircumflex">
          40 callgsubr
          190 390 53 callsubr
          -1142 737 hintmask 00101000
          551 1310 -92 callgsubr
          hintmask 00000000
          -56 -1371 14 callgsubr
          hintmask 11010000
          -90 callsubr
          endchar
        </CharString>
</ttFont>
